0
SECTION
2
HEADER
9
$INSUNITS
70
4
9
$ACADVER
1
AC1014
9
$HANDSEED
5
FFFF
0
ENDSEC
0
SECTION
2
TABLES
0
TABLE
2
VPORT
5
8
100
AcDbSymbolTable
0
ENDTAB
0
TABLE
2
LTYPE
5
5
100
AcDbSymbolTable
0
LTYPE
5
14
100
AcDbSymbolTableRecord
100
AcDbLinetypeTableRecord
2
BYBLOCK
70
0
0
LTYPE
5
15
100
AcDbSymbolTableRecord
100
AcDbLinetypeTableRecord
2
BYLAYER
70
0
0
ENDTAB
0
TABLE
2
LAYER
5
2
100
AcDbSymbolTable
70
2
0
LAYER
5
50
100
AcDbSymbolTableRecord
100
AcDbLayerTableRecord
2
0
70
0
6
CONTINUOUS
0
ENDTAB
0
TABLE
2
STYLE
5
3
100
AcDbSymbolTable
70
1
0
STYLE
5
11
100
AcDbSymbolTableRecord
100
AcDbTextStyleTableRecord
2
STANDARD
70
0
0
ENDTAB
0
TABLE
2
VIEW
5
6
100
AcDbSymbolTable
70
0
0
ENDTAB
0
TABLE
2
UCS
5
7
100
AcDbSymbolTable
70
0
0
ENDTAB
0
TABLE
2
APPID
5
9
100
AcDbSymbolTable
70
2
0
APPID
5
12
100
AcDbSymbolTableRecord
100
AcDbRegAppTableRecord
2
ACAD
70
0
0
ENDTAB
0
TABLE
2
DIMSTYLE
5
A
100
AcDbSymbolTable
70
1
0
ENDTAB
0
TABLE
2
BLOCK_RECORD
5
1
100
AcDbSymbolTable
70
1
0
BLOCK_RECORD
5
1F
100
AcDbSymbolTableRecord
100
AcDbBlockTableRecord
2
*MODEL_SPACE
0
BLOCK_RECORD
5
1B
100
AcDbSymbolTableRecord
100
AcDbBlockTableRecord
2
*PAPER_SPACE
0
ENDTAB
0
ENDSEC
0
SECTION
2
BLOCKS
0
BLOCK
5
20
100
AcDbEntity
100
AcDbBlockBegin
2
*MODEL_SPACE
0
ENDBLK
5
21
100
AcDbEntity
100
AcDbBlockEnd
0
BLOCK
5
1C
100
AcDbEntity
100
AcDbBlockBegin
2
*PAPER_SPACE
0
ENDBLK
5
1D
100
AcDbEntity
100
AcDbBlockEnd
0
ENDSEC
0
SECTION
2
ENTITIES
0
LWPOLYLINE
5
100
100
AcDbEntity
8
0
100
AcDbPolyline
90
42
70
1
43
0.0
10
279.84375161060001
20
-68.107154405883563
10
279.84375322120002
20
-78.613052634583653
42
-0.41421356237309503
10
278.84375322120002
20
-79.613052634583681
10
273.75672322119999
20
-79.613052634583738
42
-0.41421356237310542
10
272.75672322119993
20
-78.61305263458361
10
272.75672322119993
20
-77.613051116883739
10
258.60702928404021
20
-77.613051116883668
42
-0.048983506441733708
10
258.41250000000002
20
-77.632154405883568
10
255.88074665879998
20
-77.632154405883568
10
255.8807466588118
20
-78.613052634583639
42
-0.41421356237310025
10
254.88074665879995
20
-79.613052634595476
10
249.88074665879995
20
-79.613052634583667
42
-0.41421356237310542
10
248.88074665879995
20
-78.61305263458361
10
248.88074665879995
20
-77.632154405883568
10
246.41249999999999
20
-77.632154405883554
42
-0.41421356237309503
10
245.41250000000002
20
-76.632154405883568
10
245.41249999999997
20
-64.632154405883568
42
-0.41421356237309503
10
246.41249999999999
20
-63.632154405883561
10
249.68621737475974
20
-63.632154405883554
42
-0.048983506441724584
10
249.88074665879992
20
-63.613051116883661
10
254.88074665879995
20
-63.613051116883661
42
-0.048983506441723695
10
255.07527594284014
20
-63.632154405883561
10
258.1242207159595
20
-63.632154405883568
42
-0.048983506441794472
10
258.31874999999991
20
-63.613051116883611
10
266.84375
20
-63.613051116883611
10
266.84375
20
-58.563051116883628
10
265.46249999999998
20
-58.563051116883713
42
-0.41421356237310281
10
264.46249999999986
20
-57.563051116883599
10
264.46249999999992
20
-45.563051116883635
42
-0.41421356237309243
10
265.46249999999998
20
-44.563051116883592
10
277.46249999999998
20
-44.563051116883557
42
-0.41421356237308721
10
278.46250000000009
20
-45.563051116883614
10
278.46249999999992
20
-45.66915440588356
10
279.34375
20
-45.669154405883589
42
-0.41421356237309503
10
279.84375
20
-46.16915440588356
10
279.84375000000006
20
-52.16915440588356
42
-0.41421356237309503
10
279.34375
20
-52.669154405883567
10
278.46249999999992
20
-52.66915440588356
10
278.46249999999992
20
-54.107154405883556
10
279.84375
20
-54.107154405883549
42
-0.41421356237309503
10
280.84375
20
-55.107154405883563
10
280.84375000000131
20
-67.107154405883563
42
-0.41421309063935546
0
LWPOLYLINE
5
101
100
AcDbEntity
8
0
100
AcDbPolyline
90
66
70
1
43
0.0
10
347.66250000000002
20
-0.20055111688342731
42
0.41421356237309581
10
346.63749999999999
20
0.82444888311657527
10
322.79251442122154
20
0.82444888311635944
42
-0.19891236737965706
10
321.73185424944171
20
1.2637887113365276
10
316.62309703880516
20
6.372545921973046
42
0.41421356237309492
10
312.02690296109262
20
6.3725459219730567
10
306.91814575045601
20
1.2637887113364712
42
-0.19891236737966367
10
305.85748557867618
20
0.8244488831162945
10
237.06751442122135
20
0.82444888311612674
42
-0.19891236737965454
10
236.00685424944152
20
1.2637887113363182
10
230.8980970388065
20
6.3725459219713452
42
0.41421356237309132
10
226.30190296109396
20
6.3725459219713514
10
221.1931457504588
20
1.2637887113362725
42
-0.19891236737966422
10
220.13248557867897
20
0.82444888311609321
10
127.53001407767439
20
0.82444888311587738
42
-0.1989123673796579
10
126.46935390589456
20
1.2637887113360553
10
121.36059669525629
20
6.3725459219743161
42
0.41421356237309348
10
116.76440261754374
20
6.372545921974325
10
111.65564540690541
20
1.2637887113360249
42
-0.19891236737965939
10
110.59498523512559
20
0.82444888311584019
10
41.8050144212242
20
0.82444888311567155
42
-0.19891236737966134
10
40.744354249444363
20
1.2637887113358648
10
35.635597038807596
20
6.3725459219726339
42
0.41421356237309137
10
31.039402961095046
20
6.3725459219726321
10
25.930645750458226
20
1.263788711335829
42
-0.19891236737966064
10
24.869985578678389
20
0.82444888311564546
10
1.0249999999999915
20
0.82444888311631004
42
0.41421356237309148
10
-8.6053178928692934e-15
20
-0.20055111688367752
10
4.8169801480923979e-13
20
-117.21305111698365
42
0.41421356237310009
10
1.0250000000004886
20
-118.23805111698368
10
39.532537265876705
20
-118.23805111698366
42
-0.19891236737965362
10
40.593197437656499
20
-118.67739094520383
10
45.326954648190387
20
-123.41114815573766
42
0.41421356237309731
10
49.923148725902976
20
-123.41114815573764
10
54.656905936436686
20
-118.67739094520388
42
-0.19891236737965845
10
55.717566108216516
20
-118.2380511169837
10
88.40463194569999
20
-118.23805111698198
42
0.13686711257975193
10
89.439907708081478
20
-117.9492507242238
10
93.485195665918269
20
-115.00185150964307
42
-0.1368671125797494
10
94.520471428299999
20
-114.71305111688483
10
121.96879999999308
20
-114.71305111698018
42
0.41421356237411477
10
123.96879999999999
20
-112.71305111698015
10
123.96879999999994
20
-101.71305111698366
42
-0.41421356237308982
10
124.96879999999997
20
-100.71305111698365
10
148.875051687
20
-100.71305111698366
42
-0.4142135623730846
10
149.875051687
20
-101.71305111698365
10
149.875051687
20
-112.71305111698368
42
0.41421356237309503
10
151.87505168699997
20
-114.71305111698369
10
172.41713194569999
20
-114.71305111692456
42
-0.13686711257781944
10
173.45240770809997
20
-115.00185150968369
10
177.49769566589998
20
-117.94925072418368
42
0.1368671125844157
10
178.53297142829999
20
-118.23805111695727
10
206.22003726542377
20
-118.23805111698368
42
-0.19891236737965154
10
207.28069743720357
20
-118.67739094520385
10
212.01445464804948
20
-123.41114815604975
42
0.41421356237309848
10
216.61064872576208
20
-123.41114815604973
10
221.34440593660796
20
-118.67739094520387
42
-0.19891236737965581
10
222.40506610838776
20
-118.2380511169837
10
301.46998557819381
20
-118.2380511169837
42
-0.19891236737965362
10
302.53064574997364
20
-118.67739094520387
10
307.26440296096837
20
-123.41114815619858
42
0.41421356237309959
10
311.86059703868096
20
-123.41114815619858
10
316.59435424967563
20
-118.67739094520388
42
-0.19891236737965801
10
317.65501442145546
20
-118.2380511169837
10
346.63749999999993
20
-118.23805111698368
42
0.41421356237310009
10
347.66249999999991
20
-117.21305111698368
0
LWPOLYLINE
5
102
100
AcDbEntity
8
0
100
AcDbPolyline
90
11
70
1
43
0.0
10
208.40630187990001
20
-115.73213605168363
10
196.40630179247822
20
-115.73213605168365
42
-0.41421353676785233
10
195.40630187990001
20
-114.73213605168361
10
195.40630187990004
20
-100.73212384468364
42
-0.41421356237308982
10
196.40630187990001
20
-99.73212384468367
10
202.52506694580001
20
-99.732123844683542
42
-0.4142135623730846
10
203.52506694580012
20
-100.73212384468363
10
203.52506694580001
20
-101.73213605168363
10
208.40630187990348
20
-101.73213605168336
42
-0.41421356237207008
10
209.4063018799003
20
-102.73213605168364
10
209.40630187989998
20
-114.73213609538364
42
-0.41421354957366296
0
LWPOLYLINE
5
103
100
AcDbEntity
8
0
100
AcDbPolyline
90
8
70
1
43
0.0
10
312.08749999999992
20
-38.513051116883624
10
312.08749999999998
20
-26.513051116883631
42
-0.41421356237309503
10
313.08749999999998
20
-25.513051116883588
10
325.08749999999992
20
-25.513051116883545
42
-0.41421356237308854
10
326.08749999999998
20
-26.513051116883609
10
326.08749999999998
20
-38.513051116883624
42
-0.41421356237309764
10
325.08749999999992
20
-39.513051116883688
10
313.08749999999998
20
-39.513051116883716
42
-0.41421356237309764
0
LWPOLYLINE
5
104
100
AcDbEntity
8
0
100
AcDbPolyline
90
8
70
1
43
0.0
10
32.099999999999973
20
-44.563051116883628
10
44.100000000000001
20
-44.563051116883614
42
-0.41421356237308721
10
45.100000000000016
20
-45.563051116883599
10
45.099999999999987
20
-57.563051116883599
42
-0.41421356237309764
10
44.100000000000001
20
-58.563051116883599
10
32.099999999999973
20
-58.563051116883557
42
-0.41421356237309764
10
31.100000000000048
20
-57.563051116883585
10
31.099999999999994
20
-45.563051116883614
42
-0.41421356237308721
0
LWPOLYLINE
5
105
100
AcDbEntity
8
0
100
AcDbPolyline
90
8
70
1
43
0.0
10
212.07499999999993
20
-38.513051116883624
10
212.07499999999993
20
-26.513051116883631
42
-0.41421356237309503
10
213.07499999999999
20
-25.513051116883588
10
225.07499999999996
20
-25.513051116883688
42
-0.41421356237308854
10
226.0749999999999
20
-26.513051116883609
10
226.07499999999993
20
-38.513051116883624
42
-0.41421356237309764
10
225.07499999999996
20
-39.513051116883595
10
213.07499999999999
20
-39.51305111688368
42
-0.41421356237309764
0
LWPOLYLINE
5
106
100
AcDbEntity
8
0
100
AcDbPolyline
90
8
70
1
43
0.0
10
64.437499999999957
20
-95.663051116883594
42
0.41421356237310542
10
65.4375
20
-96.663051116883679
10
77.437499999999986
20
-96.663051116883679
42
0.41421356237310025
10
78.437500000000028
20
-95.663051116883622
10
78.437500000000014
20
-83.663051116883622
42
0.4142135623730846
10
77.437499999999986
20
-82.663051116883594
10
65.4375
20
-82.663051116883565
42
0.41421356237308982
10
64.437499999999915
20
-83.663051116883636
0
LWPOLYLINE
5
107
100
AcDbEntity
8
0
100
AcDbPolyline
90
8
70
1
43
0.0
10
312.08749999999992
20
-14.700551116883624
10
312.08749999999986
20
-2.7005511168836378
42
-0.41421356237309492
10
313.08749999999998
20
-1.7005511168835175
10
325.08749999999992
20
-1.700551116883624
42
-0.41421356237309015
10
326.08749999999992
20
-2.7005511168836218
10
326.08749999999992
20
-14.700551116883624
42
-0.41421356237309631
10
325.08749999999992
20
-15.700551116883625
10
313.08749999999998
20
-15.700551116883714
42
-0.41421356237309631
0
LWPOLYLINE
5
108
100
AcDbEntity
8
0
100
AcDbPolyline
90
8
70
1
43
0.0
10
173.97499999999997
20
-38.513051116883624
10
173.97499999999997
20
-26.513051116883631
42
-0.41421356237309503
10
174.97499999999999
20
-25.513051116883606
10
186.97499999999994
20
-25.513051116883581
42
-0.41421356237308854
10
187.97499999999999
20
-26.513051116883609
10
187.97499999999999
20
-38.513051116883624
42
-0.41421356237309764
10
186.97499999999994
20
-39.513051116883688
10
174.97499999999999
20
-39.513051116883645
42
-0.41421356237309764
0
LWPOLYLINE
5
109
100
AcDbEntity
8
0
100
AcDbPolyline
90
8
70
1
43
0.0
10
207.31250000000006
20
-76.613051116883625
42
0.41421356237310542
10
208.3125
20
-77.613051116883611
10
220.3125
20
-77.61305111688371
42
0.41421356237310025
10
221.31250000000006
20
-76.613051116883653
10
221.31250000000006
20
-64.613051116883625
42
0.4142135623730846
10
220.3125
20
-63.613051116883597
10
208.3125
20
-63.613051116883661
42
0.41421356237308982
10
207.3125
20
-64.613051116883639
0
LWPOLYLINE
5
110
100
AcDbEntity
8
0
100
AcDbPolyline
90
8
70
1
43
0.0
10
293.03749999999991
20
-38.513051116883624
10
293.03749999999985
20
-26.513051116883631
42
-0.41421356237309503
10
294.03749999999997
20
-25.513051116883517
10
306.03749999999997
20
-25.513051116883616
42
-0.41421356237308854
10
307.03749999999997
20
-26.513051116883609
10
307.03749999999991
20
-38.513051116883624
42
-0.41421356237309764
10
306.03749999999997
20
-39.513051116883574
10
294.03749999999997
20
-39.513051116883716
42
-0.41421356237309764
0
LWPOLYLINE
5
111
100
AcDbEntity
8
0
100
AcDbPolyline
90
8
70
1
43
0.0
10
193.02499999999992
20
-38.513051116883624
10
193.02499999999992
20
-26.513051116883631
42
-0.41421356237309503
10
194.02499999999998
20
-25.513051116883588
10
206.02499999999995
20
-25.513051116883688
42
-0.41421356237308854
10
207.02499999999989
20
-26.513051116883609
10
207.02499999999992
20
-38.513051116883624
42
-0.41421356237309764
10
206.02499999999995
20
-39.513051116883595
10
194.02499999999998
20
-39.51305111688368
42
-0.41421356237309764
0
LWPOLYLINE
5
112
100
AcDbEntity
8
0
100
AcDbPolyline
90
8
70
1
43
0.0
10
45.387499999999932
20
-95.663051116883622
10
45.387499999999918
20
-83.663051116883636
42
-0.41421356237308982
10
46.387499999999982
20
-82.663051116883594
10
58.38750000000001
20
-82.663051116883565
42
-0.4142135623730846
10
59.387500000000095
20
-83.663051116883622
10
59.387500000000095
20
-95.663051116883622
42
-0.41421356237310025
10
58.38750000000001
20
-96.663051116883722
10
46.387499999999982
20
-96.663051116883679
42
-0.41421356237310025
0
LWPOLYLINE
5
113
100
AcDbEntity
8
0
100
AcDbPolyline
90
8
70
1
43
0.0
10
331.13749999999993
20
-14.700551116883624
10
331.13749999999993
20
-2.7005511168836378
42
-0.41421356237309492
10
332.13750000000005
20
-1.7005511168835175
10
344.13749999999993
20
-1.700551116883624
42
-0.41421356237309015
10
345.13749999999993
20
-2.7005511168836218
10
345.13749999999993
20
-14.700551116883624
42
-0.41421356237309631
10
344.13749999999993
20
-15.700551116883625
10
332.13750000000005
20
-15.700551116883714
42
-0.41421356237309631
0
LWPOLYLINE
5
114
100
AcDbEntity
8
0
100
AcDbPolyline
90
8
70
1
43
0.0
10
226.36249999999995
20
-76.613051116883625
42
0.41421356237310542
10
227.36250000000001
20
-77.61305111688371
10
239.36250000000001
20
-77.61305111688371
42
0.41421356237310025
10
240.36250000000007
20
-76.613051116883653
10
240.36250000000007
20
-64.613051116883625
42
0.4142135623730846
10
239.36250000000001
20
-63.613051116883597
10
227.36250000000001
20
-63.613051116883526
42
0.41421356237308982
10
226.36249999999987
20
-64.613051116883639
0
LWPOLYLINE
5
115
100
AcDbEntity
8
0
100
AcDbPolyline
90
8
70
1
43
0.0
10
188.26249999999993
20
-76.613051116883653
10
188.26249999999987
20
-64.613051116883639
42
-0.41421356237308982
10
189.26249999999999
20
-63.613051116883526
10
201.26249999999999
20
-63.613051116883639
42
-0.4142135623730846
10
202.26249999999999
20
-64.613051116883625
10
202.26249999999993
20
-76.613051116883653
42
-0.41421356237310025
10
201.26249999999999
20
-77.613051116883611
10
189.26250000000005
20
-77.61305111688371
42
-0.41421356237310025
0
LWPOLYLINE
5
116
100
AcDbEntity
8
0
100
AcDbPolyline
90
8
70
1
43
0.0
10
250.18768606569989
20
-14.700551116883606
42
0.41421356237310153
10
251.18768606569998
20
-15.700551116883716
10
263.18768606570001
20
-15.700551116883679
42
0.41421356237309631
10
264.18768606570001
20
-14.700551116883624
10
264.18768606570006
20
-2.7005511168836209
42
0.41421356237309015
10
263.18768606570001
20
-1.7005511168835112
10
251.18768606569998
20
-1.700551116883517
42
0.41421356237309492
10
250.18768606569989
20
-2.700551116883636
0
LWPOLYLINE
5
117
100
AcDbEntity
8
0
100
AcDbPolyline
90
8
70
1
43
0.0
10
232.125
20
-1.7005511168836374
10
244.12499999999997
20
-1.7005511168835881
42
-0.41421356237309015
10
245.12500000000003
20
-2.7005511168836209
10
245.12500000000003
20
-14.700551116883624
42
-0.41421356237309631
10
244.12499999999997
20
-15.700551116883679
10
232.125
20
-15.700551116883643
42
-0.41421356237310153
10
231.12499999999997
20
-14.700551116883606
10
231.12499999999997
20
-2.7005511168836369
42
-0.41421356237309492
0
LWPOLYLINE
5
118
100
AcDbEntity
8
0
100
AcDbPolyline
90
8
70
1
43
0.0
10
116.82499999999997
20
-38.513051116883624
10
116.82499999999996
20
-26.513051116883631
42
-0.41421356237309503
10
117.82499999999999
20
-25.513051116883606
10
129.82499999999999
20
-25.513051116883652
42
-0.41421356237308854
10
130.82499999999996
20
-26.513051116883609
10
130.82499999999999
20
-38.513051116883624
42
-0.41421356237309764
10
129.82499999999999
20
-39.513051116883645
10
117.82499999999999
20
-39.513051116883645
42
-0.41421356237309764
0
LWPOLYLINE
5
119
100
AcDbEntity
8
0
100
AcDbPolyline
90
8
70
1
43
0.0
10
169.21250000000001
20
-76.613051116883625
42
0.41421356237310542
10
170.21249999999998
20
-77.613051116883639
10
182.21249999999998
20
-77.613051116883668
42
0.41421356237310025
10
183.21249999999998
20
-76.613051116883653
10
183.21249999999998
20
-64.613051116883625
42
0.4142135623730846
10
182.21249999999998
20
-63.613051116883632
10
170.21249999999998
20
-63.613051116883625
42
0.41421356237308982
10
169.21249999999998
20
-64.613051116883639
0
LWPOLYLINE
5
120
100
AcDbEntity
8
0
100
AcDbPolyline
90
8
70
1
43
0.0
10
154.92500000000001
20
-38.513051116883624
10
154.92499999999995
20
-26.513051116883631
42
-0.41421356237309503
10
155.92499999999998
20
-25.513051116883606
10
167.92499999999995
20
-25.513051116883652
42
-0.41421356237308854
10
168.92499999999995
20
-26.513051116883609
10
168.92499999999998
20
-38.513051116883624
42
-0.41421356237309764
10
167.92499999999995
20
-39.513051116883645
10
155.92499999999998
20
-39.513051116883609
42
-0.41421356237309764
0
LWPOLYLINE
5
121
100
AcDbEntity
8
0
100
AcDbPolyline
90
8
70
1
43
0.0
10
293.03749999999991
20
-14.700551116883606
42
0.41421356237310153
10
294.03749999999997
20
-15.700551116883716
10
306.03749999999997
20
-15.700551116883679
42
0.41421356237309631
10
307.03750000000002
20
-14.700551116883624
10
307.03750000000002
20
-2.7005511168836218
42
0.41421356237309015
10
306.03749999999997
20
-1.7005511168835481
10
294.03749999999997
20
-1.7005511168836422
42
0.41421356237309492
10
293.03749999999997
20
-2.7005511168836382
0
LWPOLYLINE
5
122
100
AcDbEntity
8
0
100
AcDbPolyline
90
8
70
1
43
0.0
10
135.875
20
-38.513051116883602
42
0.41421356237310281
10
136.875
20
-39.513051116883645
10
148.875
20
-39.513051116883666
42
0.41421356237309764
10
149.875
20
-38.513051116883624
10
149.87500000000006
20
-26.513051116883609
42
0.41421356237308854
10
148.875
20
-25.513051116883577
10
136.875
20
-25.513051116883588
42
0.41421356237309503
10
135.87499999999994
20
-26.513051116883631
0
LWPOLYLINE
5
123
100
AcDbEntity
8
0
100
AcDbPolyline
90
8
70
1
43
0.0
10
131.11249999999995
20
-76.613051116883653
10
131.11249999999993
20
-64.613051116883639
42
-0.41421356237308982
10
132.11249999999995
20
-63.613051116883625
10
144.11249999999998
20
-63.613051116883675
42
-0.4142135623730846
10
145.11249999999995
20
-64.613051116883625
10
145.11250000000001
20
-76.613051116883653
42
-0.41421356237310025
10
144.11249999999998
20
-77.613051116883696
10
132.11249999999995
20
-77.613051116883682
42
-0.41421356237310025
0
LWPOLYLINE
5
124
100
AcDbEntity
8
0
100
AcDbPolyline
90
8
70
1
43
0.0
10
183.49999999999997
20
-14.700551116883624
10
183.5
20
-2.7005511168836369
42
-0.41421356237309492
10
184.5
20
-1.7005511168836418
10
196.5
20
-1.7005511168835881
42
-0.41421356237309015
10
197.50000000000003
20
-2.7005511168836209
10
197.50000000000003
20
-14.700551116883624
42
-0.41421356237309631
10
196.5
20
-15.700551116883679
10
184.5
20
-15.700551116883643
42
-0.41421356237309631
0
LWPOLYLINE
5
125
100
AcDbEntity
8
0
100
AcDbPolyline
90
8
70
1
43
0.0
10
97.774999999999963
20
-38.532154405883603
42
0.41421356237310281
10
98.774999999999977
20
-39.532154405883652
10
110.77499999999998
20
-39.532154405883666
42
0.41421356237309764
10
111.77499999999998
20
-38.532154405883624
10
111.77499999999995
20
-26.532154405883617
42
0.41421356237308854
10
110.77499999999998
20
-25.532154405883634
10
98.774999999999977
20
-25.532154405883606
42
0.4142135623730937
10
97.774999999999963
20
-26.532154405883634
0
LWPOLYLINE
5
126
100
AcDbEntity
8
0
100
AcDbPolyline
90
8
70
1
43
0.0
10
150.16249999999997
20
-76.613051116883653
10
150.16249999999994
20
-64.613051116883639
42
-0.41421356237308982
10
151.16249999999997
20
-63.613051116883625
10
163.16249999999999
20
-63.613051116883639
42
-0.4142135623730846
10
164.16250000000002
20
-64.613051116883625
10
164.16250000000005
20
-76.613051116883653
42
-0.41421356237310025
10
163.16249999999999
20
-77.613051116883696
10
151.16249999999997
20
-77.613051116883682
42
-0.41421356237310025
0
LWPOLYLINE
5
127
100
AcDbEntity
8
0
100
AcDbPolyline
90
8
70
1
43
0.0
10
269.22883759269996
20
-14.700551116883624
10
269.22883759270002
20
-2.7005511168836369
42
-0.41421356237309492
10
270.22883759269996
20
-1.7005511168836418
10
282.22883759270002
20
-1.700551116883553
42
-0.41421356237309015
10
283.22883759270007
20
-2.7005511168836218
10
283.22883759270007
20
-14.700551116883624
42
-0.41421356237309631
10
282.22883759270002
20
-15.700551116883679
10
270.22883759269996
20
-15.700551116883643
42
-0.41421356237309631
0
LWPOLYLINE
5
128
100
AcDbEntity
8
0
100
AcDbPolyline
90
8
70
1
43
0.0
10
164.44999999999996
20
-14.700551116883624
10
164.44999999999993
20
-2.7005511168836369
42
-0.41421356237309492
10
165.44999999999999
20
-1.7005511168835874
10
177.44999999999999
20
-1.7005511168835881
42
-0.41421356237309015
10
178.45000000000002
20
-2.7005511168836209
10
178.44999999999999
20
-14.700551116883624
42
-0.41421356237309631
10
177.44999999999999
20
-15.700551116883625
10
165.44999999999999
20
-15.700551116883643
42
-0.41421356237309631
0
LWPOLYLINE
5
129
100
AcDbEntity
8
0
100
AcDbPolyline
90
8
70
1
43
0.0
10
59.674999999999997
20
-38.532154405883588
42
0.41421356237310153
10
60.67499999999999
20
-39.532154405883617
10
72.675000000000011
20
-39.532154405883652
42
0.41421356237308982
10
73.67500000000004
20
-38.53215440588361
10
73.674999999999983
20
-26.532154405883595
42
0.41421356237308204
10
72.675000000000011
20
-25.532154405883617
10
60.67499999999999
20
-25.532154405883642
42
0.4142135623730937
10
59.675000000000011
20
-26.532154405883617
0
LWPOLYLINE
5
130
100
AcDbEntity
8
0
100
AcDbPolyline
90
8
70
1
43
0.0
10
4.9062500000000142
20
-76.613051116883625
10
4.9062499999999876
20
-64.613051116883625
42
-0.41421356237308721
10
5.9062499999999929
20
-63.613051116883625
10
22.668749999999989
20
-63.613051116884122
42
-0.4142135623730846
10
23.668749999999505
20
-64.613051116883597
10
23.668749999999967
20
-76.613051116883625
42
-0.41421356237310025
10
22.668749999999989
20
-77.613051116883625
10
5.9062499999999929
20
-77.613051116883639
42
-0.41421356237309764
0
LWPOLYLINE
5
131
100
AcDbEntity
8
0
100
AcDbPolyline
90
8
70
1
43
0.0
10
112.06249999999997
20
-76.613051116883653
10
112.06249999999996
20
-64.613051116883639
42
-0.41421356237308982
10
113.06249999999999
20
-63.613051116883625
10
125.06249999999997
20
-63.613051116883639
42
-0.4142135623730846
10
126.0625
20
-64.613051116883625
10
126.06250000000001
20
-76.613051116883653
42
-0.41421356237310025
10
125.06249999999997
20
-77.613051116883696
10
113.06249999999999
20
-77.613051116883682
42
-0.41421356237310025
0
LWPOLYLINE
5
132
100
AcDbEntity
8
0
100
AcDbPolyline
90
8
70
1
43
0.0
10
145.39999999999989
20
-14.700551116883624
10
145.39999999999986
20
-2.7005511168836369
42
-0.41421356237309492
10
146.39999999999998
20
-1.700551116883517
10
158.39999999999998
20
-1.7005511168836236
42
-0.41421356237309015
10
159.39999999999998
20
-2.7005511168836209
10
159.40000000000001
20
-14.700551116883624
42
-0.41421356237309631
10
158.39999999999998
20
-15.700551116883661
10
146.39999999999998
20
-15.700551116883714
42
-0.41421356237309631
0
LWPOLYLINE
5
133
100
AcDbEntity
8
0
100
AcDbPolyline
90
8
70
1
43
0.0
10
79.724999999999994
20
-25.532154405883563
10
91.724999999999994
20
-25.532154405883659
42
-0.41421356237308854
10
92.724999999999966
20
-26.532154405883617
10
92.725000000000023
20
-38.532154405883624
42
-0.41421356237309764
10
91.724999999999994
20
-39.532154405883666
10
79.724999999999994
20
-39.532154405883603
42
-0.41421356237310675
10
78.724999999999994
20
-38.532154405883588
10
78.724999999999923
20
-26.532154405883617
42
-0.41421356237309892
0
LWPOLYLINE
5
134
100
AcDbEntity
8
0
100
AcDbPolyline
90
8
70
1
43
0.0
10
94.012500000000017
20
-63.613051116883611
10
106.01249999999996
20
-63.613051116883604
42
-0.4142135623730846
10
107.01250000000002
20
-64.613051116883625
10
107.01250000000003
20
-76.613051116883653
42
-0.41421356237310025
10
106.01249999999996
20
-77.613051116883739
10
94.012500000000017
20
-77.613051116883682
42
-0.41421356237310542
10
93.012499999999989
20
-76.613051116883625
10
93.01249999999996
20
-64.613051116883639
42
-0.41421356237308982
0
LWPOLYLINE
5
135
100
AcDbEntity
8
0
100
AcDbPolyline
90
8
70
1
43
0.0
10
40.624999999999929
20
-38.53215440588361
10
40.624999999999943
20
-26.532154405883617
42
-0.41421356237308854
10
41.624999999999979
20
-25.532154405883571
10
53.625000000000007
20
-25.532154405883588
42
-0.41421356237308721
10
54.625000000000043
20
-26.532154405883595
10
54.62500000000005
20
-38.53215440588361
42
-0.41421356237309503
10
53.625000000000007
20
-39.532154405883652
10
41.624999999999979
20
-39.532154405883674
42
-0.41421356237308982
0
LWPOLYLINE
5
136
100
AcDbEntity
8
0
100
AcDbPolyline
90
8
70
1
43
0.0
10
126.34999999999994
20
-14.700551116883624
10
126.34999999999988
20
-2.7005511168836369
42
-0.41421356237309492
10
127.34999999999999
20
-1.700551116883517
10
139.34999999999999
20
-1.7005511168835881
42
-0.41421356237309015
10
140.35000000000002
20
-2.7005511168836209
10
140.35000000000002
20
-14.700551116883624
42
-0.41421356237309631
10
139.34999999999999
20
-15.700551116883679
10
127.34999999999999
20
-15.700551116883679
42
-0.41421356237309631
0
LWPOLYLINE
5
137
100
AcDbEntity
8
0
100
AcDbPolyline
90
8
70
1
43
0.0
10
216.83750000000003
20
-95.663051116883636
10
216.83749999999998
20
-83.663051116883636
42
-0.41421356237308982
10
217.83749999999998
20
-82.663051116883665
10
229.83749999999998
20
-82.663051116883608
42
-0.4142135623730846
10
230.83750000000003
20
-83.663051116883622
10
230.83750000000006
20
-95.663051116883636
42
-0.41421356237310025
10
229.83749999999998
20
-96.663051116883736
10
217.83749999999998
20
-96.663051116883594
42
-0.41421356237310025
0
LWPOLYLINE
5
138
100
AcDbEntity
8
0
100
AcDbPolyline
90
8
70
1
43
0.0
10
2.5249999999999151
20
-14.700551116883588
42
0.41421356237309892
10
3.5249999999999915
20
-15.700551116883698
10
15.524999999999984
20
-15.700551116883661
42
0.41421356237309631
10
16.525000000000034
20
-14.700551116883606
10
16.525000000000034
20
-2.7005511168836027
42
0.41421356237308982
10
15.524999999999984
20
-1.7005511168835659
10
3.5249999999999915
20
-1.7005511168835341
42
0.41421356237309231
10
2.5249999999999062
20
-2.7005511168836205
0
LWPOLYLINE
5
139
100
AcDbEntity
8
0
100
AcDbPolyline
90
8
70
1
43
0.0
10
73.962499999999977
20
-76.613051116883625
10
73.962499999999977
20
-64.613051116883625
42
-0.41421356237308982
10
74.962500000000006
20
-63.613051116883625
10
86.962499999999991
20
-63.613051116883639
42
-0.4142135623730846
10
87.962499999999991
20
-64.613051116883597
10
87.962500000000006
20
-76.613051116883625
42
-0.41421356237310025
10
86.962499999999991
20
-77.613051116883668
10
74.962500000000006
20
-77.613051116883668
42
-0.41421356237310025
0
LWPOLYLINE
5
140
100
AcDbEntity
8
0
100
AcDbPolyline
90
8
70
1
43
0.0
10
41.624999999999979
20
-1.7005511168835297
10
53.625000000000007
20
-1.7005511168835885
42
-0.41421356237308982
10
54.625000000000043
20
-2.7005511168836027
10
54.625000000000057
20
-14.700551116883606
42
-0.41421356237309631
10
53.625000000000007
20
-15.700551116883661
10
41.624999999999979
20
-15.700551116883732
42
-0.41421356237309631
10
40.624999999999872
20
-14.700551116883588
10
40.624999999999901
20
-2.70055111688362
42
-0.41421356237308971
0
LWPOLYLINE
5
141
100
AcDbEntity
8
0
100
AcDbPolyline
90
8
70
1
43
0.0
10
59.674999999999955
20
-14.700551116883588
42
0.41421356237310153
10
60.67499999999999
20
-15.700551116883643
10
72.675000000000011
20
-15.700551116883643
42
0.41421356237309115
10
73.67500000000004
20
-14.700551116883606
10
73.674999999999997
20
-2.7005511168836027
42
0.4142135623730846
10
72.675000000000011
20
-1.7005511168836192
10
60.67499999999999
20
-1.7005511168835703
42
0.41421356237309492
10
59.67499999999994
20
-2.7005511168836205
0
LWPOLYLINE
5
142
100
AcDbEntity
8
0
100
AcDbPolyline
90
8
70
1
43
0.0
10
78.724999999999952
20
-14.700551116883606
10
78.724999999999952
20
-2.70055111688362
42
-0.41421356237310009
10
79.724999999999994
20
-1.7005511168835874
10
91.724999999999994
20
-1.7005511168836236
42
-0.41421356237309015
10
92.725000000000009
20
-2.7005511168836209
10
92.725000000000023
20
-14.700551116883624
42
-0.41421356237309631
10
91.724999999999994
20
-15.700551116883661
10
79.724999999999994
20
-15.700551116883643
42
-0.41421356237310153
0
LWPOLYLINE
5
143
100
AcDbEntity
8
0
100
AcDbPolyline
90
8
70
1
43
0.0
10
21.574999999999989
20
-38.53215440588361
10
21.575000000000006
20
-26.532154405883617
42
-0.41421356237308854
10
22.574999999999967
20
-25.532154405883642
10
34.574999999999996
20
-25.532154405883624
42
-0.41421356237308721
10
35.574999999999989
20
-26.532154405883595
10
35.575000000000017
20
-38.53215440588361
42
-0.41421356237309503
10
34.574999999999996
20
-39.532154405883631
10
22.574999999999967
20
-39.532154405883603
42
-0.41421356237308982
0
LWPOLYLINE
5
144
100
AcDbEntity
8
0
100
AcDbPolyline
90
8
70
1
43
0.0
10
54.912499999999973
20
-76.613051116883625
10
54.912499999999973
20
-64.613051116883625
42
-0.41421356237308982
10
55.912499999999987
20
-63.613051116883625
10
67.91249999999998
20
-63.613051116883639
42
-0.4142135623730846
10
68.91249999999998
20
-64.613051116883597
10
68.912500000000023
20
-76.613051116883625
42
-0.41421356237310025
10
67.91249999999998
20
-77.613051116883696
10
55.912499999999987
20
-77.613051116883668
42
-0.41421356237310025
0
LWPOLYLINE
5
145
100
AcDbEntity
8
0
100
AcDbPolyline
90
8
70
1
43
0.0
10
7.2875000000000156
20
-57.563051116883599
10
7.2874999999999623
20
-45.563051116883614
42
-0.41421356237309243
10
8.2874999999999943
20
-44.563051116883592
10
20.287499999999987
20
-44.563051116883557
42
-0.41421356237308721
10
21.287500000000055
20
-45.563051116883599
10
21.287500000000044
20
-57.563051116883599
42
-0.41421356237309764
10
20.287499999999987
20
-58.56305111688367
10
8.2874999999999943
20
-58.563051116883585
42
-0.41421356237309764
0
LWPOLYLINE
5
146
100
AcDbEntity
8
0
100
AcDbPolyline
90
8
70
1
43
0.0
10
2.5249999999999329
20
-38.532154405883588
42
0.41421356237309892
10
3.5249999999999915
20
-39.532154405883688
10
15.524999999999984
20
-39.532154405883652
42
0.41421356237309503
10
16.524999999999999
20
-38.53215440588361
10
16.525000000000016
20
-26.532154405883595
42
0.41421356237308721
10
15.524999999999984
20
-25.532154405883563
10
3.5249999999999915
20
-25.532154405883571
42
0.41421356237309115
10
2.5249999999999417
20
-26.532154405883617
0
LWPOLYLINE
5
147
100
AcDbEntity
8
0
100
AcDbPolyline
90
8
70
1
43
0.0
10
83.487500000000026
20
-95.663051116883622
10
83.487499999999969
20
-83.663051116883636
42
-0.41421356237308982
10
84.487500000000011
20
-82.663051116883622
10
96.487499999999997
20
-82.663051116883679
42
-0.4142135623730846
10
97.487499999999983
20
-83.663051116883622
10
97.48750000000004
20
-95.663051116883622
42
-0.41421356237310025
10
96.487499999999997
20
-96.663051116883679
10
84.487500000000011
20
-96.663051116883608
42
-0.41421356237310025
0
LWPOLYLINE
5
148
100
AcDbEntity
8
0
100
AcDbPolyline
90
8
70
1
43
0.0
10
331.13749999999993
20
-38.513051116883602
42
0.41421356237310281
10
332.13750000000005
20
-39.513051116883716
10
344.13749999999993
20
-39.513051116883688
42
0.41421356237309764
10
345.13750000000005
20
-38.513051116883624
10
345.13750000000005
20
-26.513051116883609
42
0.41421356237308854
10
344.13749999999993
20
-25.513051116883577
10
332.13750000000005
20
-25.513051116883606
42
0.41421356237309503
10
331.13749999999993
20
-26.513051116883631
0
LWPOLYLINE
5
149
100
AcDbEntity
8
0
100
AcDbPolyline
90
8
70
1
43
0.0
10
51.149999999999984
20
-44.563051116883592
10
63.150000000000013
20
-44.563051116883628
42
-0.41421356237308204
10
64.149999999999991
20
-45.563051116883599
10
64.150000000000006
20
-57.563051116883599
42
-0.41421356237309243
10
63.150000000000013
20
-58.563051116883614
10
51.149999999999984
20
-58.563051116883585
42
-0.41421356237310281
10
50.150000000000006
20
-57.563051116883585
10
50.149999999999949
20
-45.563051116883614
42
-0.41421356237309243
0
LWPOLYLINE
5
150
100
AcDbEntity
8
0
100
AcDbPolyline
90
8
70
1
43
0.0
10
121.58749999999995
20
-95.663051116883622
10
121.58749999999989
20
-83.663051116883636
42
-0.41421356237308982
10
122.58749999999995
20
-82.663051116883594
10
134.58749999999998
20
-82.663051116883608
42
-0.4142135623730846
10
135.58750000000003
20
-83.663051116883622
10
135.58750000000006
20
-95.663051116883622
42
-0.41421356237310025
10
134.58749999999998
20
-96.663051116883722
10
122.58749999999995
20
-96.663051116883651
42
-0.41421356237310025
0
LWPOLYLINE
5
151
100
AcDbEntity
8
0
100
AcDbPolyline
90
8
70
1
43
0.0
10
69.199999999999946
20
-57.563051116883585
42
0.41421356237310281
10
70.199999999999989
20
-58.56305111688367
10
82.200000000000017
20
-58.563051116883649
42
0.41421356237309243
10
83.200000000000045
20
-57.563051116883599
10
83.200000000000003
20
-45.563051116883599
42
0.41421356237308204
10
82.200000000000017
20
-44.563051116883614
10
70.199999999999989
20
-44.563051116883578
42
0.41421356237309243
10
69.199999999999946
20
-45.563051116883614
0
LWPOLYLINE
5
152
100
AcDbEntity
8
0
100
AcDbPolyline
90
8
70
1
43
0.0
10
102.53749999999997
20
-95.663051116883622
10
102.53749999999995
20
-83.663051116883636
42
-0.41421356237308982
10
103.53749999999998
20
-82.663051116883622
10
115.53749999999997
20
-82.663051116883565
42
-0.4142135623730846
10
116.53750000000005
20
-83.663051116883622
10
116.53750000000005
20
-95.663051116883622
42
-0.41421356237310025
10
115.53749999999997
20
-96.663051116883722
10
103.53749999999998
20
-96.663051116883651
42
-0.41421356237310025
0
LWPOLYLINE
5
153
100
AcDbEntity
8
0
100
AcDbPolyline
90
8
70
1
43
0.0
10
212.07499999999999
20
-14.700551116883606
42
0.41421356237310153
10
213.07499999999999
20
-15.700551116883609
10
225.07499999999996
20
-15.700551116883679
42
0.41421356237309631
10
226.07500000000002
20
-14.700551116883624
10
226.07500000000002
20
-2.7005511168836209
42
0.41421356237309015
10
225.07499999999996
20
-1.700551116883583
10
213.07499999999999
20
-1.7005511168836585
42
0.41421356237309492
10
212.07499999999999
20
-2.700551116883636
0
LWPOLYLINE
5
154
100
AcDbEntity
8
0
100
AcDbPolyline
90
8
70
1
43
0.0
10
254.65000000000006
20
-45.563051116883614
42
0.41421356237308721
10
253.64999999999998
20
-44.563051116883557
10
241.64999999999995
20
-44.563051116883592
42
0.41421356237309243
10
240.64999999999992
20
-45.563051116883635
10
240.64999999999992
20
-57.563051116883599
42
0.41421356237310281
10
241.64999999999995
20
-58.56305111688367
10
253.64999999999998
20
-58.563051116883685
42
0.41421356237309764
10
254.65000000000006
20
-57.563051116883621
0
LWPOLYLINE
5
155
100
AcDbEntity
8
0
100
AcDbPolyline
90
8
70
1
43
0.0
10
107.29999999999997
20
-57.563051116883621
10
107.29999999999995
20
-45.563051116883635
42
-0.41421356237309243
10
108.29999999999998
20
-44.563051116883614
10
120.29999999999998
20
-44.563051116883628
42
-0.41421356237308721
10
121.29999999999998
20
-45.563051116883614
10
121.30000000000003
20
-57.563051116883621
42
-0.41421356237309764
10
120.29999999999998
20
-58.56305111688367
10
108.29999999999998
20
-58.563051116883642
42
-0.41421356237309764
0
LWPOLYLINE
5
156
100
AcDbEntity
8
0
100
AcDbPolyline
90
8
70
1
43
0.0
10
293.03749999999997
20
-57.563051116883621
10
293.03749999999991
20
-45.563051116883635
42
-0.41421356237309243
10
294.03749999999997
20
-44.563051116883614
10
306.03749999999997
20
-44.563051116883557
42
-0.41421356237308721
10
307.03750000000002
20
-45.563051116883614
10
307.03750000000002
20
-57.563051116883621
42
-0.41421356237309764
10
306.03749999999997
20
-58.563051116883685
10
294.03749999999997
20
-58.563051116883642
42
-0.41421356237309764
0
LWPOLYLINE
5
157
100
AcDbEntity
8
0
100
AcDbPolyline
90
8
70
1
43
0.0
10
140.63749999999996
20
-95.663051116883594
42
0.41421356237310542
10
141.63749999999996
20
-96.663051116883665
10
153.63749999999999
20
-96.663051116883651
42
0.41421356237310025
10
154.63750000000002
20
-95.663051116883622
10
154.63750000000002
20
-83.663051116883622
42
0.4142135623730846
10
153.63749999999999
20
-82.663051116883594
10
141.63749999999996
20
-82.663051116883622
42
0.41421356237308982
10
140.63749999999996
20
-83.663051116883636
0
LWPOLYLINE
5
158
100
AcDbEntity
8
0
100
AcDbPolyline
90
8
70
1
43
0.0
10
88.25
20
-57.563051116883599
10
88.249999999999886
20
-45.563051116883614
42
-0.41421356237308721
10
89.249999999999972
20
-44.563051116883557
10
101.25
20
-44.563051116883628
42
-0.41421356237308721
10
102.25000000000001
20
-45.563051116883614
10
102.25000000000001
20
-57.563051116883621
42
-0.41421356237309764
10
101.25
20
-58.563051116883635
10
89.249999999999972
20
-58.563051116883607
42
-0.41421356237310281
0
LWPOLYLINE
5
159
100
AcDbEntity
8
0
100
AcDbPolyline
90
8
70
1
43
0.0
10
331.13749999999993
20
-57.563051116883621
10
331.13749999999993
20
-45.563051116883635
42
-0.41421356237309243
10
332.13750000000005
20
-44.563051116883521
10
344.13749999999993
20
-44.563051116883628
42
-0.41421356237308721
10
345.13749999999993
20
-45.563051116883614
10
345.13749999999987
20
-57.563051116883621
42
-0.41421356237309764
10
344.13749999999993
20
-58.563051116883599
10
332.13750000000005
20
-58.563051116883713
42
-0.41421356237309764
0
LWPOLYLINE
5
160
100
AcDbEntity
8
0
100
AcDbPolyline
90
8
70
1
43
0.0
10
178.73749999999998
20
-95.663051116883636
10
178.73749999999995
20
-83.663051116883636
42
-0.41421356237308982
10
179.73749999999998
20
-82.663051116883594
10
191.73750000000001
20
-82.663051116883608
42
-0.4142135623730846
10
192.73750000000007
20
-83.663051116883622
10
192.7375000000001
20
-95.663051116883636
42
-0.41421356237310025
10
191.73750000000001
20
-96.663051116883736
10
179.73750000000001
20
-96.663051116883665
42
-0.41421356237310025
0
LWPOLYLINE
5
161
100
AcDbEntity
8
0
100
AcDbPolyline
90
8
70
1
43
0.0
10
159.68749999999994
20
-95.663051116883594
42
0.41421356237310542
10
160.68749999999997
20
-96.663051116883707
10
172.6875
20
-96.663051116883707
42
0.41421356237310025
10
173.68750000000003
20
-95.663051116883636
10
173.68750000000003
20
-83.663051116883622
42
0.4142135623730846
10
172.6875
20
-82.663051116883608
10
160.68749999999997
20
-82.663051116883565
42
0.41421356237308982
10
159.68749999999989
20
-83.663051116883636
0
LWPOLYLINE
5
162
100
AcDbEntity
8
0
100
AcDbPolyline
90
8
70
1
43
0.0
10
313.08749999999998
20
-44.563051116883507
10
325.08749999999992
20
-44.563051116883628
42
-0.41421356237308721
10
326.08749999999992
20
-45.563051116883614
10
326.08749999999986
20
-57.563051116883621
42
-0.41421356237309764
10
325.08749999999992
20
-58.563051116883578
10
313.08749999999998
20
-58.563051116883713
42
-0.41421356237310281
10
312.08749999999992
20
-57.563051116883599
10
312.08749999999986
20
-45.563051116883635
42
-0.41421356237309243
0
LWPOLYLINE
5
163
100
AcDbEntity
8
0
100
AcDbPolyline
90
8
70
1
43
0.0
10
197.78749999999991
20
-95.663051116883636
10
197.7874999999998
20
-83.663051116883636
42
-0.41421356237308982
10
198.78749999999997
20
-82.663051116883523
10
210.78749999999997
20
-82.66305111688375
42
-0.4142135623730846
10
211.78749999999985
20
-83.663051116883622
10
211.78749999999985
20
-95.663051116883636
42
-0.41421356237310025
10
210.78749999999997
20
-96.66305111688358
10
198.78749999999997
20
-96.663051116883707
42
-0.41421356237310025
0
LWPOLYLINE
5
164
100
AcDbEntity
8
0
100
AcDbPolyline
90
8
70
1
43
0.0
10
231.12500000000006
20
-38.513051116883624
10
231.125
20
-26.513051116883631
42
-0.41421356237309503
10
232.125
20
-25.513051116883659
10
244.12499999999997
20
-25.513051116883545
42
-0.41421356237308854
10
245.12500000000006
20
-26.513051116883609
10
245.12500000000003
20
-38.513051116883624
42
-0.41421356237309764
10
244.12499999999997
20
-39.513051116883688
10
232.125
20
-39.513051116883574
42
-0.41421356237309764
0
LWPOLYLINE
5
165
100
AcDbEntity
8
0
100
AcDbPolyline
90
8
70
1
43
0.0
10
127.34999999999999
20
-44.563051116883543
10
139.34999999999999
20
-44.563051116883592
42
-0.41421356237308721
10
140.35000000000002
20
-45.563051116883614
10
140.35000000000002
20
-57.563051116883621
42
-0.41421356237309764
10
139.34999999999999
20
-58.56305111688367
10
127.34999999999999
20
-58.563051116883642
42
-0.41421356237310281
10
126.34999999999998
20
-57.563051116883599
10
126.34999999999989
20
-45.563051116883635
42
-0.41421356237309243
0
LWPOLYLINE
5
166
100
AcDbEntity
8
0
100
AcDbPolyline
90
8
70
1
43
0.0
10
165.44999999999999
20
-44.563051116883592
10
177.44999999999999
20
-44.563051116883628
42
-0.41421356237308721
10
178.44999999999999
20
-45.563051116883614
10
178.45000000000002
20
-57.563051116883621
42
-0.41421356237309764
10
177.44999999999999
20
-58.56305111688367
10
165.44999999999999
20
-58.563051116883642
42
-0.41421356237310281
10
164.44999999999996
20
-57.563051116883599
10
164.44999999999993
20
-45.563051116883635
42
-0.41421356237309243
0
LWPOLYLINE
5
167
100
AcDbEntity
8
0
100
AcDbPolyline
90
8
70
1
43
0.0
10
183.49999999999997
20
-57.563051116883621
10
183.5
20
-45.563051116883635
42
-0.41421356237309243
10
184.5
20
-44.563051116883663
10
196.5
20
-44.563051116883592
42
-0.41421356237308721
10
197.50000000000003
20
-45.563051116883614
10
197.5
20
-57.563051116883621
42
-0.41421356237309764
10
196.5
20
-58.563051116883649
10
184.5
20
-58.563051116883642
42
-0.41421356237309764
0
LWPOLYLINE
5
168
100
AcDbEntity
8
0
100
AcDbPolyline
90
8
70
1
43
0.0
10
312.08749999999992
20
-95.663051116883636
10
312.08749999999998
20
-83.663051116883636
42
-0.41421356237308982
10
313.08749999999998
20
-82.663051116883594
10
325.08749999999992
20
-82.663051116883707
42
-0.4142135623730846
10
326.08749999999986
20
-83.663051116883622
10
326.08749999999986
20
-95.663051116883636
42
-0.41421356237310025
10
325.08749999999992
20
-96.663051116883594
10
313.08750000000003
20
-96.663051116883736
42
-0.41421356237310025
0
LWPOLYLINE
5
169
100
AcDbEntity
8
0
100
AcDbPolyline
90
8
70
1
43
0.0
10
145.39999999999995
20
-57.563051116883621
10
145.39999999999998
20
-45.563051116883635
42
-0.41421356237309243
10
146.39999999999998
20
-44.563051116883649
10
158.39999999999998
20
-44.563051116883628
42
-0.41421356237308721
10
159.39999999999998
20
-45.563051116883614
10
159.40000000000001
20
-57.563051116883621
42
-0.41421356237309764
10
158.39999999999998
20
-58.56305111688367
10
146.39999999999998
20
-58.563051116883642
42
-0.41421356237309764
0
LWPOLYLINE
5
170
100
AcDbEntity
8
0
100
AcDbPolyline
90
8
70
1
43
0.0
10
293.03749999999997
20
-114.71305111688361
42
0.41421356237310542
10
294.03749999999997
20
-115.71305111688368
10
306.03749999999997
20
-115.71305111688373
42
0.41421356237310025
10
307.03750000000002
20
-114.71305111688363
10
307.03750000000002
20
-102.71305111688362
42
0.4142135623730846
10
306.03749999999997
20
-101.71305111688358
10
294.03749999999997
20
-101.71305111688366
42
0.41421356237308982
10
293.03749999999997
20
-102.71305111688363
0
LWPOLYLINE
5
171
100
AcDbEntity
8
0
100
AcDbPolyline
90
8
70
1
43
0.0
10
331.13749999999993
20
-114.71305111688365
10
331.13749999999993
20
-102.71305111688363
42
-0.41421356237308982
10
332.13750000000005
20
-101.71305111688361
10
344.13749999999993
20
-101.71305111688363
42
-0.4142135623730846
10
345.13749999999993
20
-102.71305111688362
10
345.13749999999987
20
-114.71305111688365
42
-0.41421356237310025
10
344.13749999999993
20
-115.71305111688362
10
332.13750000000005
20
-115.71305111688375
42
-0.41421356237310025
0
LWPOLYLINE
5
172
100
AcDbEntity
8
0
100
AcDbPolyline
90
8
70
1
43
0.0
10
312.08749999999992
20
-114.71305111688363
10
312.08749999999998
20
-102.71305111688363
42
-0.41421356237308982
10
313.08749999999998
20
-101.71305111688361
10
325.08749999999992
20
-101.71305111688363
42
-0.4142135623730846
10
326.08749999999992
20
-102.71305111688362
10
326.08749999999986
20
-114.71305111688363
42
-0.41421356237310025
10
325.08749999999992
20
-115.71305111688359
10
313.08750000000003
20
-115.71305111688373
42
-0.41421356237310025
0
LWPOLYLINE
5
173
100
AcDbEntity
8
0
100
AcDbPolyline
90
8
70
1
43
0.0
10
68.912566945800279
20
-102.73214830238361
42
0.41421356237308982
10
67.912566945799966
20
-101.73214830238335
10
53.531301879900006
20
-101.73213609538338
42
0.41421356237309503
10
52.531301879899743
20
-102.73213609538361
10
52.531301879899871
20
-114.73213605167186
42
0.41421357517598711
10
53.531301879900006
20
-115.73213609538374
10
67.912566945799966
20
-115.73214830238354
42
0.41421356237310542
10
68.912566945799824
20
-114.73214830238364
0
LWPOLYLINE
5
174
100
AcDbEntity
8
0
100
AcDbPolyline
90
8
70
1
43
0.0
10
35.862499999999926
20
-76.613051116883625
10
35.86249999999994
20
-64.613051116883625
42
-0.4142135623730846
10
36.862499999999976
20
-63.613051116883589
10
48.862500000000004
20
-63.613051116883661
42
-0.4142135623730846
10
49.862499999999983
20
-64.613051116883597
10
49.862499999999997
20
-76.613051116883625
42
-0.41421356237310025
10
48.862500000000004
20
-77.613051116883639
10
36.862499999999976
20
-77.61305111688371
42
-0.41421356237309503
0
LWPOLYLINE
5
175
100
AcDbEntity
8
0
100
AcDbPolyline
90
8
70
1
43
0.0
10
221.59999999999991
20
-57.563051116883621
10
221.59999999999991
20
-45.563051116883635
42
-0.41421356237309243
10
222.59999999999994
20
-44.563051116883592
10
234.59999999999997
20
-44.563051116883557
42
-0.41421356237308721
10
235.60000000000005
20
-45.563051116883614
10
235.59999999999991
20
-57.563051116883621
42
-0.41421356237309764
10
234.59999999999997
20
-58.563051116883578
10
222.59999999999994
20
-58.563051116883678
42
-0.41421356237309764
0
LWPOLYLINE
5
176
100
AcDbEntity
8
0
100
AcDbPolyline
90
8
70
1
43
0.0
10
202.54999999999995
20
-57.563051116883621
10
202.54999999999995
20
-45.563051116883635
42
-0.41421356237309243
10
203.55000000000001
20
-44.563051116883592
10
215.55000000000001
20
-44.563051116883699
42
-0.41421356237308721
10
216.54999999999995
20
-45.563051116883614
10
216.55000000000001
20
-57.563051116883621
42
-0.41421356237309764
10
215.55000000000001
20
-58.563051116883635
10
203.55000000000001
20
-58.563051116883678
42
-0.41421356237309764
0
LWPOLYLINE
5
177
100
AcDbEntity
8
0
100
AcDbPolyline
90
8
70
1
43
0.0
10
97.774999999999963
20
-14.700551116883624
10
97.77499999999992
20
-2.7005511168836369
42
-0.41421356237309492
10
98.774999999999977
20
-1.7005511168835874
10
110.77499999999998
20
-1.7005511168836236
42
-0.41421356237309015
10
111.77499999999998
20
-2.7005511168836209
10
111.77500000000002
20
-14.700551116883624
42
-0.41421356237309631
10
110.77499999999998
20
-15.700551116883679
10
98.774999999999977
20
-15.700551116883643
42
-0.41421356237309631
0
LWPOLYLINE
5
178
100
AcDbEntity
8
0
100
AcDbPolyline
90
20
70
1
43
0.0
10
251.1749816894
20
-25.513045013383437
42
0.41421356237308593
10
250.1749816893998
20
-26.513045013383586
10
250.17498168939991
20
-38.513044969671839
42
0.41421357517598578
10
251.1749816894
20
-39.513045013383717
10
251.26200561519997
20
-39.513045013383625
10
251.26200561520005
20
-40.513045013383604
42
0.41421356237310281
10
252.2620056152
20
-41.513045013383554
10
257.2620056152
20
-41.513045013383461
42
0.41421356237309764
10
258.26200561519977
20
-40.513045013383618
10
258.26203569969999
20
-39.513045013383625
10
275.13798217770005
20
-39.513045013383625
10
275.13798217770011
20
-40.513045013383604
42
0.41421356237310281
10
276.13798217770005
20
-41.513045013383554
10
281.13798217770005
20
-41.513045013383518
42
0.41421356237309764
10
282.13798217769994
20
-40.513045013383618
10
282.1379821777
20
-39.513045013383625
10
282.22498168940001
20
-39.513045013383767
42
0.41421356237309892
10
283.22498168940012
20
-38.513045013383632
10
283.22498168940012
20
-26.51304496967181
42
0.41421354957020307
10
282.22498168940001
20
-25.513045013383532
0
LWPOLYLINE
5
179
100
AcDbEntity
8
0
100
AcDbPolyline
90
8
70
1
43
0.0
10
217.83756694580001
20
-101.73214830238378
10
232.21880179250002
20
-101.73213609538364
42
-0.41421357517251678
10
233.21880187990001
20
-102.73213605168363
10
233.21880187990024
20
-114.73213609538364
42
-0.41421356237310025
10
232.21880187989998
20
-115.73213609538394
10
217.83756694580001
20
-115.73214830238311
42
-0.41421356237310542
10
216.83756694580055
20
-114.73214830238362
10
216.83756694580012
20
-102.73214830238362
42
-0.41421356237308982
0
LWPOLYLINE
5
180
100
AcDbEntity
8
0
100
AcDbPolyline
90
8
70
1
43
0.0
10
77.462545776399992
20
-114.73585923988364
42
0.41421356237311063
10
78.462545776399992
20
-115.73585923988367
10
88.225066945799966
20
-115.73214830238391
42
0.41421356237310542
10
89.225066945800194
20
-114.73214830238368
10
89.225066945800194
20
-100.73400830238367
42
0.41421356237256957
10
88.225066945801728
20
-99.734008302383472
10
78.462545688900008
20
-99.737719239883674
42
0.4142135367449391
10
77.462545776399992
20
-100.73771923988369
0
LWPOLYLINE
5
181
100
AcDbEntity
8
0
100
AcDbPolyline
90
8
70
1
43
0.0
10
29.718801879899992
20
-101.73213609538337
10
44.100066945800016
20
-101.73214830238339
42
-0.41421356237307944
10
45.100066945800243
20
-102.73214830238361
10
45.100066945799959
20
-114.73214830238364
42
-0.41421356237309503
10
44.100066945800016
20
-115.73214830238362
10
29.718801879899992
20
-115.73213609538378
42
-0.4142135751759819
10
28.718801879899853
20
-114.73213605167186
10
28.718801879899729
20
-102.73213609538361
42
-0.41421356237308982
0
LWPOLYLINE
5
182
100
AcDbEntity
8
0
100
AcDbPolyline
90
8
70
1
43
0.0
10
183.47505798339998
20
-115.73585923988367
10
178.47505798339998
20
-115.73585923988368
42
-0.41421356237310542
10
177.47505798339998
20
-114.73585923988364
10
177.47505798339969
20
-100.73585923988369
42
-0.41421353676733208
10
178.47505789597645
20
-99.735859239883396
10
183.47505798339998
20
-99.735859239883254
42
-0.41421356237309503
10
184.47505798340043
20
-100.73585923988369
10
184.47505798339995
20
-114.73585923988365
42
-0.41421356237310025
0
LWPOLYLINE
5
183
100
AcDbEntity
8
0
100
AcDbPolyline
90
8
70
1
43
0.0
10
240.65006694580018
20
-114.73214830238362
42
0.41421356237310542
10
241.65006694580001
20
-115.73214830238349
10
256.03130187990001
20
-115.7321360953835
42
0.41421356237310025
10
257.0313018798999
20
-114.73213609538364
10
257.03130187989944
20
-102.73213605167359
42
0.41421357517648133
10
256.03130179247648
20
-101.73213609538419
10
241.65006694580001
20
-101.73214830238329
42
0.41421356237308982
10
240.65006694579967
20
-102.73214830238362
0
LWPOLYLINE
5
184
100
AcDbEntity
8
0
100
AcDbPolyline
90
11
70
1
43
0.0
10
273.99422912599999
20
-98.663045013392122
42
0.41421356237616469
10
274.99422912600846
20
-97.663045013373164
10
274.99422912599999
20
-96.663020599283627
10
282.22504882810006
20
-96.663020599283811
42
0.41421356237310025
10
283.22504882810017
20
-95.663020599283627
10
283.2250488281
20
-83.663020599283598
42
0.4142135623730846
10
282.22504882810006
20
-82.663020599283669
10
268.98925677128705
20
-82.663045013336856
42
0.41276675266368645
10
267.99419899408116
20
-83.66303280630531
10
267.99422912597959
20
-97.663045013383609
42
0.41421356236952589
10
268.99422912598777
20
-98.663045013404087
0
LWPOLYLINE
5
185
100
AcDbEntity
8
0
100
AcDbPolyline
90
14
70
1
43
0.0
10
266.55624084470008
20
-83.663045013383638
10
266.55624084469969
20
-95.663045013383638
42
-0.41421356237310025
10
265.55624084470003
20
-96.663045013383311
10
251.11825256349999
20
-96.663020648683641
10
251.11825256350039
20
-97.663045013383623
42
-0.41421356237257995
10
250.11825256350176
20
-98.66304501338405
10
245.11825256349823
20
-98.66304501338405
42
-0.41421356237259555
10
244.11825256349957
20
-97.663045013383609
10
244.11825256349999
20
-96.663020599283627
10
244.03129882809995
20
-96.663020599283811
42
-0.41421356237310542
10
243.03129882809981
20
-95.663020599283612
10
243.03129882810003
20
-83.663020599283612
42
-0.41421356237308982
10
244.03129882809995
20
-82.663020599283755
10
265.55624084469997
20
-82.663045013383567
42
-0.41421356237308982
0
LWPOLYLINE
5
186
100
AcDbEntity
8
0
100
AcDbPolyline
90
20
70
1
43
0.0
10
40.337493896499872
20
-83.663038909883639
10
40.337493896499893
20
-95.663038909883653
42
-0.41421356237207529
10
39.337493896503481
20
-96.663038909883539
10
36.869236755399974
20
-96.663038909883625
10
36.86923675540001
20
-97.663038887983618
42
-0.41421356237310542
10
35.86923675539996
20
-98.663038887983674
10
30.86923675539996
20
-98.663038887983689
42
-0.41421356237310025
10
29.869236755399928
20
-97.663038887983603
10
29.869236755399982
20
-96.663038887983618
10
12.993290312899965
20
-96.663032773583652
10
12.993260192911809
20
-97.663038887983618
42
-0.41421356237309503
10
11.993260192900017
20
-98.663038887995441
10
6.9932601928999816
20
-98.663038887983589
42
-0.41421356237309764
10
5.9932601929000118
20
-97.663038887983603
10
5.9932601929000029
20
-96.663038887983603
10
5.9074938964999646
20
-96.663038887983561
42
-0.41421356237310025
10
4.9074938965000658
20
-95.663038887983603
10
4.9074938965000747
20
-83.663038909883639
42
-0.4142135623730846
10
5.9074938964999646
20
-82.663038909883753
10
39.3374938965
20
-82.663038909883795
42
-0.41421356237308982
0
LWPOLYLINE
5
187
100
AcDbEntity
8
0
100
AcDbPolyline
90
8
70
1
43
0.0
10
279.84380187990007
20
-115.73213609538331
10
265.46256694580001
20
-115.73214830238354
42
-0.41421356237310542
10
264.46256694580012
20
-114.73214830238362
10
264.46256694579972
20
-102.73214830238362
42
-0.41421356237308982
10
265.46256694580001
20
-101.73214830238337
10
279.84380179250002
20
-101.73213609538463
42
-0.41421357517254803
10
280.8438018798991
20
-102.73213605168363
10
280.84380187989973
20
-114.73213609538364
42
-0.41421356237310025
0
LWPOLYLINE
5
188
100
AcDbEntity
8
0
100
AcDbPolyline
90
8
70
1
43
0.0
10
5.9063018798999778
20
-101.73213609538328
42
0.4142135623730846
10
4.9063018798996083
20
-102.73213609538359
10
4.9063018798998748
20
-114.73213605167186
42
0.4142135751759819
10
5.9063018798999778
20
-115.73213609538372
10
20.287566945800002
20
-115.73214830238362
42
0.41421356237309503
10
21.287566945799945
20
-114.73214830238364
10
21.287566945800229
20
-102.73214830238361
42
0.41421356237307944
10
20.287566945800002
20
-101.73214830238338
0
LWPOLYLINE
5
189
100
AcDbEntity
8
0
100
AcDbPolyline
90
8
70
1
43
0.0
10
345.13750000000005
20
-73.946384450216954
10
345.13750000000005
20
-76.613051116883625
42
-0.41421356237313145
10
344.13749999999999
20
-77.613051116883625
10
294.03749999999997
20
-77.613051116883611
42
-0.41421356237309503
10
293.03749999999991
20
-76.613051116883611
10
293.03749999999991
20
-73.946384450216954
42
-0.41421356237309243
10
294.03749999999997
20
-72.946384450216939
10
344.13749999999999
20
-72.946384450216954
42
-0.41421356237312884
0
LWPOLYLINE
5
190
100
AcDbEntity
8
0
100
AcDbPolyline
90
8
70
1
43
0.0
10
293.03750000000008
20
-67.279717783550268
42
0.41421356237309503
10
294.03750000000008
20
-68.279717783550282
10
344.13749999999987
20
-68.279717783550268
42
0.41421356237312884
10
345.13749999999987
20
-67.279717783550282
10
345.13749999999987
20
-64.613051116883582
42
0.41421356237312362
10
344.13749999999987
20
-63.613051116883604
10
294.03750000000008
20
-63.613051116883611
42
0.41421356237308982
10
293.03750000000008
20
-64.613051116883611
0
CIRCLE
5
191
100
AcDbEntity
8
0
100
AcDbCircle
10
309.56249999982469
20
-121.11305111734232
30
2.886579864025407e-14
40
1.4999999999999858
210
-1.2206488875331701e-19
220
0
230
1
0
CIRCLE
5
192
100
AcDbEntity
8
0
100
AcDbCircle
10
33.337499999951312
20
4.0744488831163297
30
-1.1102230246251565e-15
40
1.4999999999999947
210
-1.2206488875331636e-19
220
0
230
1
0
CIRCLE
5
193
100
AcDbEntity
8
0
100
AcDbCircle
10
228.59999999995023
20
4.0744488831150525
30
-2.2204460492503131e-15
40
1.4999999999999858
210
-1.2206488875331636e-19
220
0
230
1
0
CIRCLE
5
194
100
AcDbEntity
8
0
100
AcDbCircle
10
314.32499999994889
20
4.0744488831167667
30
-1.1102230246251565e-15
40
1.4999999999999858
210
-1.2206488875331636e-19
220
0
230
1
0
CIRCLE
5
195
100
AcDbEntity
8
0
100
AcDbCircle
10
119.06249965640001
20
4.0744488831180341
30
0
40
1.5000000000000036
210
-1.2206488875331634e-19
220
0
230
1
0
CIRCLE
5
196
100
AcDbEntity
8
0
100
AcDbCircle
10
47.625051687046671
20
-121.11305111688138
30
2.9976021664879227e-14
40
1.4999999999999947
210
-1.2206488875331703e-19
220
0
230
1
0
CIRCLE
5
197
100
AcDbEntity
8
0
100
AcDbCircle
10
214.31255168690575
20
-121.11305111719346
30
2.9976021664879227e-14
40
1.4999999999999858
210
-1.2206488875331701e-19
220
0
230
1
0
ENDSEC
0
SECTION
2
OBJECTS
0
DICTIONARY
5
C
100
AcDbDictionary
3
ACAD_GROUP
350
D
3
ACAD_MLINESTYLE
350
17
0
DICTIONARY
5
D
100
AcDbDictionary
0
DICTIONARY
5
1A
330
C
100
AcDbDictionary
0
DICTIONARY
5
17
100
AcDbDictionary
0
ENDSEC
0
EOF
