0
SECTION
2
HEADER
9
$INSUNITS
70
4
9
$ACADVER
1
AC1014
9
$HANDSEED
5
FFFF
0
ENDSEC
0
SECTION
2
TABLES
0
TABLE
2
VPORT
5
8
100
AcDbSymbolTable
0
ENDTAB
0
TABLE
2
LTYPE
5
5
100
AcDbSymbolTable
0
LTYPE
5
14
100
AcDbSymbolTableRecord
100
AcDbLinetypeTableRecord
2
BYBLOCK
70
0
0
LTYPE
5
15
100
AcDbSymbolTableRecord
100
AcDbLinetypeTableRecord
2
BYLAYER
70
0
0
ENDTAB
0
TABLE
2
LAYER
5
2
100
AcDbSymbolTable
70
2
0
LAYER
5
50
100
AcDbSymbolTableRecord
100
AcDbLayerTableRecord
2
0
70
0
6
CONTINUOUS
0
ENDTAB
0
TABLE
2
STYLE
5
3
100
AcDbSymbolTable
70
1
0
STYLE
5
11
100
AcDbSymbolTableRecord
100
AcDbTextStyleTableRecord
2
STANDARD
70
0
0
ENDTAB
0
TABLE
2
VIEW
5
6
100
AcDbSymbolTable
70
0
0
ENDTAB
0
TABLE
2
UCS
5
7
100
AcDbSymbolTable
70
0
0
ENDTAB
0
TABLE
2
APPID
5
9
100
AcDbSymbolTable
70
2
0
APPID
5
12
100
AcDbSymbolTableRecord
100
AcDbRegAppTableRecord
2
ACAD
70
0
0
ENDTAB
0
TABLE
2
DIMSTYLE
5
A
100
AcDbSymbolTable
70
1
0
ENDTAB
0
TABLE
2
BLOCK_RECORD
5
1
100
AcDbSymbolTable
70
1
0
BLOCK_RECORD
5
1F
100
AcDbSymbolTableRecord
100
AcDbBlockTableRecord
2
*MODEL_SPACE
0
BLOCK_RECORD
5
1B
100
AcDbSymbolTableRecord
100
AcDbBlockTableRecord
2
*PAPER_SPACE
0
ENDTAB
0
ENDSEC
0
SECTION
2
BLOCKS
0
BLOCK
5
20
100
AcDbEntity
100
AcDbBlockBegin
2
*MODEL_SPACE
0
ENDBLK
5
21
100
AcDbEntity
100
AcDbBlockEnd
0
BLOCK
5
1C
100
AcDbEntity
100
AcDbBlockBegin
2
*PAPER_SPACE
0
ENDBLK
5
1D
100
AcDbEntity
100
AcDbBlockEnd
0
ENDSEC
0
SECTION
2
ENTITIES
0
LWPOLYLINE
5
100
100
AcDbEntity
8
0
100
AcDbPolyline
90
8
70
1
43
0.0
10
113.20010694819992
20
-107.61367222038365
10
113.90010694819993
20
-107.61367222038366
42
-0.41421356237309503
10
114.65010694819993
20
-108.36367222038365
10
114.65010694819993
20
-109.06367222038368
42
-0.41421356237308116
10
113.90010694819993
20
-109.81367222038367
10
113.20010694819992
20
-109.81367222038367
42
-0.41421356237308815
10
112.45010694819993
20
-109.06367222038367
10
112.4501069481999
20
-108.36367222038368
42
-0.41421356237310197
0
LWPOLYLINE
5
101
100
AcDbEntity
8
0
100
AcDbPolyline
90
8
70
1
43
0.0
10
173.30010694819998
20
-108.36367222038368
10
173.30010694819998
20
-109.06367222038368
42
-0.41421356237308815
10
172.55010694819998
20
-109.81367222038367
10
171.85010694819997
20
-109.81367222038365
42
-0.41421356237309503
10
171.10010694819999
20
-109.06367222038367
10
171.10010694819999
20
-108.36367222038368
42
-0.41421356237310897
10
171.85010694819997
20
-107.61367222038362
10
172.55010694819998
20
-107.61367222038365
42
-0.41421356237310897
0
LWPOLYLINE
5
102
100
AcDbEntity
8
0
100
AcDbPolyline
90
8
70
1
43
0.0
10
102.70010694819993
20
-108.36367222038368
10
102.70010694819993
20
-109.06367222038368
42
-0.41421356237308116
10
101.95010694819993
20
-109.81367222038367
10
101.25010694819991
20
-109.81367222038367
42
-0.41421356237308815
10
100.50010694819991
20
-109.06367222038367
10
100.50010694819991
20
-108.36367222038368
42
-0.41421356237310197
10
101.25010694819991
20
-107.61367222038366
10
101.95010694819993
20
-107.61367222038366
42
-0.41421356237310197
0
LWPOLYLINE
5
103
100
AcDbEntity
8
0
100
AcDbPolyline
90
8
70
1
43
0.0
10
245.05626312889996
20
-93.664046938883672
10
246.05626126329994
20
-93.664046938883686
42
-0.41421356237308815
10
246.80626126329994
20
-94.414046938883658
10
246.80626126329994
20
-97.714055414783644
42
-0.41421356237308815
10
246.05626126329994
20
-98.464055414783616
10
245.05626312889996
20
-98.464055414783616
42
-0.41421356237309503
10
244.30626312889996
20
-97.714055414783616
10
244.30626312889996
20
-94.414046938883658
42
-0.41421356237309503
0
LWPOLYLINE
5
104
100
AcDbEntity
8
0
100
AcDbPolyline
90
8
70
1
43
0.0
10
183.80010694819993
20
-107.61367222038365
10
184.50010694819994
20
-107.61367222038366
42
-0.41421356237304652
10
185.25010694819997
20
-108.36367222038363
10
185.25010694819997
20
-109.06367222038368
42
-0.41421356237308116
10
184.50010694819994
20
-109.81367222038367
10
183.80010694819993
20
-109.81367222038367
42
-0.41421356237308815
10
183.05010694819993
20
-109.06367222038367
10
183.05010694819993
20
-108.36367222038365
42
-0.4142135623730534
0
LWPOLYLINE
5
105
100
AcDbEntity
8
0
100
AcDbPolyline
90
8
70
1
43
0.0
10
273.05626322779995
20
-93.664046938883629
10
274.05626136219996
20
-93.664046938883672
42
-0.41421356237308815
10
274.8062613621999
20
-94.414046938883644
10
274.8062613621999
20
-97.714055414783644
42
-0.41421356237308815
10
274.05626136219996
20
-98.464055414783616
10
273.05626322779995
20
-98.464055414783601
42
-0.41421356237308815
10
272.30626322779995
20
-97.714055414783616
10
272.30626322779989
20
-94.414046938883644
42
-0.41421356237308815
0
LWPOLYLINE
5
106
100
AcDbEntity
8
0
100
AcDbPolyline
90
8
70
1
43
0.0
10
249.48374999999999
20
-74.488051116883597
10
251.15375
20
-74.488051116883568
42
-0.41421356237309503
10
251.65375
20
-74.988051116883582
10
251.65375
20
-79.19805111688359
42
-0.41421356237309503
10
251.15375
20
-79.69805111688359
10
249.48374999999999
20
-79.69805111688359
42
-0.41421356237309503
10
248.98374999999999
20
-79.19805111688359
10
248.98375000000001
20
-74.988051116883582
42
-0.41421356237309503
0
LWPOLYLINE
5
107
100
AcDbEntity
8
0
100
AcDbPolyline
90
8
70
1
43
0.0
10
237.72125
20
-98.248051116883602
10
237.72124999999994
20
-94.038051116883565
42
-0.41421356237309503
10
238.22125
20
-93.538051116883537
10
239.89125000000001
20
-93.538051116883565
42
-0.41421356237309503
10
240.39125000000001
20
-94.038051116883565
10
240.39125000000001
20
-98.248051116883602
42
-0.4142135623730846
10
239.89125000000001
20
-98.748051116883587
10
238.22125
20
-98.748051116883587
42
-0.4142135623730846
0
LWPOLYLINE
5
108
100
AcDbEntity
8
0
100
AcDbPolyline
90
8
70
1
43
0.0
10
27.833749999999991
20
-74.488051116883597
10
29.503749999999993
20
-74.488051116883582
42
-0.41421356237309503
10
30.003749999999989
20
-74.988051116883582
10
30.00375
20
-79.19805111688359
42
-0.41421356237309503
10
29.503749999999993
20
-79.69805111688359
10
27.833749999999991
20
-79.698051116883576
42
-0.41421356237309503
10
27.333749999999991
20
-79.19805111688359
10
27.333750000000002
20
-74.988051116883582
42
-0.41421356237309503
0
LWPOLYLINE
5
109
100
AcDbEntity
8
0
100
AcDbPolyline
90
8
70
1
43
0.0
10
34.096249999999991
20
-98.248051116883602
10
34.096249999999969
20
-94.038051116883565
42
-0.41421356237309503
10
34.596249999999991
20
-93.538051116883537
10
36.266249999999992
20
-93.538051116883565
42
-0.41421356237309503
10
36.766249999999992
20
-94.038051116883565
10
36.766249999999999
20
-98.248051116883602
42
-0.4142135623730846
10
36.266249999999992
20
-98.748051116883587
10
34.596249999999991
20
-98.748051116883573
42
-0.4142135623730846
0
LWPOLYLINE
5
110
100
AcDbEntity
8
0
100
AcDbPolyline
90
8
70
1
43
0.0
10
186.84
20
-117.29805111688358
10
186.84
20
-113.08805111688358
42
-0.41421356237309503
10
187.34000000000003
20
-112.58805111688358
10
189.00999999999999
20
-112.58805111688358
42
-0.41421356237309503
10
189.50999999999999
20
-113.08805111688358
10
189.50999999999999
20
-117.29805111688358
42
-0.41421356237309503
10
189.00999999999999
20
-117.7980511168836
10
187.34000000000003
20
-117.7980511168836
42
-0.41421356237309503
0
LWPOLYLINE
5
111
100
AcDbEntity
8
0
100
AcDbPolyline
90
8
70
1
43
0.0
10
251.80625000000003
20
-95.563051116883599
10
251.80624999999998
20
-83.76305111688356
42
-0.4142135623730846
10
252.30625000000003
20
-83.26305111688356
10
266.80624999999998
20
-83.263051116883574
42
-0.41421356237309503
10
267.30624999999998
20
-83.763051116883588
10
267.30625000000003
20
-95.563051116883599
42
-0.4142135623730846
10
266.80624999999998
20
-96.063051116883599
10
252.30625000000003
20
-96.063051116883585
42
-0.4142135623730846
0
LWPOLYLINE
5
112
100
AcDbEntity
8
0
100
AcDbPolyline
90
8
70
1
43
0.0
10
251.36500000000001
20
-41.098051116883582
10
251.36500000000001
20
-36.888051116883567
42
-0.41421356237309503
10
251.86500000000001
20
-36.388051116883567
10
253.535
20
-36.38805111688356
42
-0.41421356237309503
10
254.03500000000003
20
-36.888051116883567
10
254.03500000000003
20
-41.098051116883582
42
-0.41421356237309503
10
253.535
20
-41.598051116883568
10
251.86500000000001
20
-41.598051116883582
42
-0.41421356237309503
0
LWPOLYLINE
5
113
100
AcDbEntity
8
0
100
AcDbPolyline
90
8
70
1
43
0.0
10
278.72125
20
-98.248051116883602
10
278.72124999999994
20
-94.038051116883565
42
-0.41421356237309503
10
279.22125
20
-93.538051116883537
10
280.89125000000001
20
-93.538051116883565
42
-0.41421356237309503
10
281.39125000000001
20
-94.038051116883565
10
281.39125000000001
20
-98.248051116883602
42
-0.4142135623730846
10
280.89125000000001
20
-98.748051116883587
10
279.22125
20
-98.748051116883587
42
-0.4142135623730846
0
LWPOLYLINE
5
114
100
AcDbEntity
8
0
100
AcDbPolyline
90
8
70
1
43
0.0
10
3.3337499999999904
20
-79.19805111688359
42
0.41421356237309503
10
3.8337499999999904
20
-79.698051116883576
10
5.5037499999999904
20
-79.69805111688359
42
0.41421356237309503
10
6.0037499999999913
20
-79.19805111688359
10
6.0037499999999913
20
-74.988051116883582
42
0.41421356237309503
10
5.5037499999999904
20
-74.488051116883597
10
3.8337499999999904
20
-74.488051116883597
42
0.41421356237309503
10
3.3337499999999922
20
-74.988051116883582
0
LWPOLYLINE
5
115
100
AcDbEntity
8
0
100
AcDbPolyline
90
8
70
1
43
0.0
10
6.0962499999999906
20
-98.248051116883602
10
6.0962499999999666
20
-94.038051116883565
42
-0.41421356237309503
10
6.5962499999999915
20
-93.538051116883537
10
8.2662499999999888
20
-93.538051116883565
42
-0.41421356237309503
10
8.7662499999999905
20
-94.038051116883565
10
8.7662499999999959
20
-98.248051116883602
42
-0.4142135623730846
10
8.2662499999999888
20
-98.748051116883587
10
6.5962499999999915
20
-98.748051116883587
42
-0.4142135623730846
0
LWPOLYLINE
5
116
100
AcDbEntity
8
0
100
AcDbPolyline
90
8
70
1
43
0.0
10
96.739999999999981
20
-112.58805111688358
10
98.409999999999997
20
-112.58805111688358
42
-0.41421356237309503
10
98.909999999999997
20
-113.08805111688358
10
98.909999999999997
20
-117.29805111688358
42
-0.41421356237309503
10
98.409999999999997
20
-117.7980511168836
10
96.739999999999981
20
-117.7980511168836
42
-0.41421356237309503
10
96.239999999999966
20
-117.29805111688358
10
96.239999999999966
20
-113.08805111688358
42
-0.41421356237309503
0
LWPOLYLINE
5
117
100
AcDbEntity
8
0
100
AcDbPolyline
90
8
70
1
43
0.0
10
277.48374999999999
20
-74.488051116883597
10
279.15375
20
-74.488051116883568
42
-0.41421356237309503
10
279.65375
20
-74.988051116883582
10
279.65375
20
-79.19805111688359
42
-0.41421356237309503
10
279.15375
20
-79.69805111688359
10
277.48374999999999
20
-79.69805111688359
42
-0.41421356237309503
10
276.98374999999999
20
-79.19805111688359
10
276.98374999999999
20
-74.988051116883582
42
-0.41421356237309503
0
LWPOLYLINE
5
118
100
AcDbEntity
8
0
100
AcDbPolyline
90
8
70
1
43
0.0
10
279.36500000000001
20
-41.098051116883582
10
279.36500000000001
20
-36.888051116883567
42
-0.41421356237309503
10
279.86500000000001
20
-36.388051116883567
10
281.53500000000003
20
-36.38805111688356
42
-0.41421356237309503
10
282.03500000000008
20
-36.888051116883567
10
282.03500000000008
20
-41.098051116883582
42
-0.41421356237309503
10
281.53500000000003
20
-41.598051116883568
10
279.86500000000001
20
-41.598051116883582
42
-0.41421356237309503
0
LWPOLYLINE
5
119
100
AcDbEntity
8
0
100
AcDbPolyline
90
8
70
1
43
0.0
10
98.237499999999983
20
-84.013051116883588
42
0.41421356237309503
10
97.487499999999997
20
-83.263051116883588
10
83.487499999999983
20
-83.263051116883588
42
0.41421356237309503
10
82.737499999999997
20
-84.013051116883588
10
82.737499999999997
20
-95.313051116883571
42
0.41421356237309503
10
83.487499999999983
20
-96.063051116883585
10
97.487499999999997
20
-96.063051116883571
42
0.41421356237309503
10
98.237499999999983
20
-95.313051116883571
0
LWPOLYLINE
5
120
100
AcDbEntity
8
0
100
AcDbPolyline
90
8
70
1
43
0.0
10
79.1875
20
-84.013051116883588
42
0.41421356237309503
10
78.437499999999986
20
-83.263051116883574
10
64.4375
20
-83.263051116883588
42
0.41421356237309503
10
63.6875
20
-84.013051116883588
10
63.687499999999993
20
-95.313051116883571
42
0.41421356237309503
10
64.4375
20
-96.063051116883585
10
78.437499999999986
20
-96.063051116883571
42
0.41421356237309503
10
79.1875
20
-95.313051116883571
0
LWPOLYLINE
5
121
100
AcDbEntity
8
0
100
AcDbPolyline
90
8
70
1
43
0.0
10
60.137500000000003
20
-84.013051116883588
42
0.41421356237309503
10
59.387499999999996
20
-83.263051116883574
10
45.387499999999996
20
-83.263051116883588
42
0.41421356237309503
10
44.637500000000003
20
-84.013051116883588
10
44.637499999999989
20
-95.313051116883571
42
0.41421356237309503
10
45.387499999999996
20
-96.063051116883585
10
59.387499999999996
20
-96.063051116883571
42
0.41421356237309503
10
60.137500000000003
20
-95.313051116883571
0
LWPOLYLINE
5
122
100
AcDbEntity
8
0
100
AcDbPolyline
90
8
70
1
43
0.0
10
102.53749999999998
20
-83.263051116883588
42
0.41421356237309503
10
101.78749999999999
20
-84.013051116883588
10
101.78749999999999
20
-95.313051116883571
42
0.41421356237309503
10
102.53749999999998
20
-96.063051116883585
10
116.53749999999999
20
-96.063051116883571
42
0.41421356237309503
10
117.28749999999998
20
-95.313051116883571
10
117.28749999999998
20
-84.013051116883588
42
0.41421356237309503
10
116.53749999999999
20
-83.263051116883588
0
LWPOLYLINE
5
123
100
AcDbEntity
8
0
100
AcDbPolyline
90
8
70
1
43
0.0
10
14.431249999999993
20
-83.263051116883588
42
0.41421356237309503
10
13.68125
20
-84.013051116883588
10
13.681249999999993
20
-95.313051116883571
42
0.41421356237309503
10
14.431249999999993
20
-96.063051116883585
10
28.431249999999991
20
-96.063051116883571
42
0.41421356237309503
10
29.181249999999984
20
-95.313051116883571
10
29.181249999999995
20
-84.013051116883588
42
0.41421356237309503
10
28.431249999999991
20
-83.263051116883588
0
LWPOLYLINE
5
124
100
AcDbEntity
8
0
100
AcDbPolyline
90
8
70
1
43
0.0
10
183.96250000000003
20
-64.963051116883562
42
0.41421356237309503
10
183.21250000000003
20
-64.213051116883577
10
169.21250000000001
20
-64.213051116883562
42
0.41421356237309503
10
168.46250000000001
20
-64.963051116883562
10
168.46250000000001
20
-76.263051116883588
42
0.41421356237309503
10
169.21250000000001
20
-77.013051116883588
10
183.21250000000003
20
-77.013051116883588
42
0.41421356237309503
10
183.96250000000003
20
-76.263051116883588
0
LWPOLYLINE
5
125
100
AcDbEntity
8
0
100
AcDbPolyline
90
8
70
1
43
0.0
10
188.26249999999999
20
-64.213051116883562
42
0.41421356237309503
10
187.51249999999999
20
-64.963051116883562
10
187.51249999999999
20
-76.263051116883588
42
0.41421356237309503
10
188.26249999999999
20
-77.013051116883588
10
202.26249999999999
20
-77.013051116883588
42
0.41421356237309503
10
203.01249999999999
20
-76.263051116883588
10
203.01249999999999
20
-64.963051116883562
42
0.41421356237309503
10
202.26249999999999
20
-64.213051116883577
0
LWPOLYLINE
5
126
100
AcDbEntity
8
0
100
AcDbPolyline
90
8
70
1
43
0.0
10
207.31250000000003
20
-64.213051116883562
42
0.41421356237309503
10
206.56250000000003
20
-64.963051116883562
10
206.56250000000003
20
-76.263051116883588
42
0.41421356237309503
10
207.31250000000003
20
-77.013051116883588
10
221.3125
20
-77.013051116883588
42
0.41421356237309503
10
222.0625
20
-76.263051116883588
10
222.0625
20
-64.963051116883562
42
0.41421356237309503
10
221.3125
20
-64.213051116883562
0
LWPOLYLINE
5
127
100
AcDbEntity
8
0
100
AcDbPolyline
90
8
70
1
43
0.0
10
272.06875000000002
20
-64.963051116883562
42
0.41421356237309503
10
271.31875000000002
20
-64.213051116883577
10
257.31875000000002
20
-64.213051116883562
42
0.41421356237309503
10
256.56875000000002
20
-64.963051116883562
10
256.56875000000002
20
-76.263051116883588
42
0.41421356237309503
10
257.31875000000002
20
-77.013051116883588
10
271.31875000000002
20
-77.013051116883588
42
0.41421356237309503
10
272.06875000000002
20
-76.263051116883588
0
LWPOLYLINE
5
128
100
AcDbEntity
8
0
100
AcDbPolyline
90
8
70
1
43
0.0
10
345.88750000000005
20
-26.863051116883568
42
0.41421356237309503
10
345.13750000000005
20
-26.11305111688354
10
331.13750000000005
20
-26.113051116883565
42
0.41421356237309503
10
330.38749999999999
20
-26.863051116883568
10
330.38749999999999
20
-38.163051116883565
42
0.41421356237309503
10
331.13750000000005
20
-38.913051116883565
10
345.13750000000005
20
-38.913051116883565
42
0.41421356237309503
10
345.88750000000005
20
-38.163051116883565
0
LWPOLYLINE
5
129
100
AcDbEntity
8
0
100
AcDbPolyline
90
8
70
1
43
0.0
10
326.83750000000003
20
-26.863051116883568
42
0.41421356237309503
10
326.08749999999998
20
-26.11305111688354
10
312.08749999999998
20
-26.113051116883565
42
0.41421356237309503
10
311.33749999999998
20
-26.863051116883568
10
311.33749999999998
20
-38.163051116883565
42
0.41421356237309503
10
312.08749999999998
20
-38.913051116883565
10
326.08749999999998
20
-38.913051116883565
42
0.41421356237309503
10
326.83750000000003
20
-38.163051116883565
0
LWPOLYLINE
5
130
100
AcDbEntity
8
0
100
AcDbPolyline
90
8
70
1
43
0.0
10
307.78750000000002
20
-26.863051116883568
42
0.41421356237309503
10
307.03750000000002
20
-26.113051116883575
10
293.03750000000002
20
-26.113051116883565
42
0.41421356237309503
10
292.28750000000002
20
-26.863051116883568
10
292.28750000000002
20
-38.163051116883565
42
0.41421356237309503
10
293.03750000000002
20
-38.913051116883558
10
307.03750000000002
20
-38.913051116883565
42
0.41421356237309503
10
307.78750000000002
20
-38.163051116883565
0
LWPOLYLINE
5
131
100
AcDbEntity
8
0
100
AcDbPolyline
90
78
70
1
43
0.0
10
347.66250000000002
20
-117.21305111698371
10
347.66250000000002
20
-0.20055111688346089
42
0.41421356237310064
10
346.63749999999999
20
0.82444888311655851
10
322.7925144212216
20
0.82444888311633313
42
-0.19891236737965556
10
321.73185424944171
20
1.2637887113364978
10
316.62309703880516
20
6.3725459219730283
42
0.41421356237309581
10
312.02690296109262
20
6.3725459219730265
10
306.91814575045601
20
1.2637887113364543
42
-0.19891236737966367
10
305.85748557867618
20
0.82444888311627751
10
237.06751442122135
20
0.82444888311610098
42
-0.19891236737965293
10
236.00685424944152
20
1.2637887113362889
10
230.8980970388065
20
6.3725459219713283
42
0.41421356237309442
10
226.30190296109393
20
6.3725459219713194
10
221.1931457504588
20
1.2637887113362554
42
-0.19891236737966422
10
220.13248557867897
20
0.82444888311607589
10
127.53001407767439
20
0.82444888311585152
42
-0.1989123673796564
10
126.46935390589456
20
1.2637887113360258
10
121.36059669525629
20
6.3725459219743001
42
0.41421356237309653
10
116.76440261754371
20
6.3725459219742948
10
111.65564540690541
20
1.263788711336008
42
-0.19891236737965939
10
110.59498523512559
20
0.82444888311582343
10
41.8050144212242
20
0.82444888311565823
42
-0.19891236737965776
10
40.744354249444385
20
1.2637887113358355
10
35.635597038807596
20
6.3725459219726162
42
0.41421356237309287
10
31.039402961095035
20
6.3725459219726019
10
25.930645750458226
20
1.2637887113358128
42
-0.19891236737966078
10
24.869985578678389
20
0.82444888311562881
10
1.0249999999999915
20
0.82444888311629327
42
0.4142135623730987
10
-8.6052324474472958e-15
20
-0.20055111688371971
10
4.8169801480923979e-13
20
-117.21305111698368
42
0.41421356237310009
10
1.0250000000004886
20
-118.2380511169837
10
39.532537265876698
20
-118.23805111698368
42
-0.19891236737965581
10
40.593197437656521
20
-118.67739094520385
10
45.326954648190387
20
-123.41114815573768
42
0.41421356237309442
10
49.923148725902962
20
-123.41114815573769
10
54.656905936436686
20
-118.6773909452039
42
-0.19891236737965845
10
55.717566108216516
20
-118.23805111698371
10
95.163167732568922
20
-118.23805111698368
42
-0.17229961697292692
10
95.793900639541349
20
-118.46205111694363
42
0.17229961697293006
10
96.739999999999981
20
-118.79805111688361
10
98.409999999999997
20
-118.79805111688358
42
0.17229961697292767
10
99.356099360458614
20
-118.46205111694363
42
-0.17229961697292337
10
99.986832267430998
20
-118.23805111698368
10
103.28868160213865
20
-118.2380511169837
42
0.19891236737966017
10
104.34934177391847
20
-117.79871128876351
10
106.99566211752993
20
-115.15239094515206
42
-0.19891236738055984
10
108.05632228931495
20
-114.71305111693187
10
134.1249999999965
20
-114.71305111702243
42
0.41421356237411477
10
135.12499999999997
20
-113.71305111702242
10
135.12499999999997
20
-102.81305111688363
42
-0.41421356237309503
10
135.62499999999997
20
-102.31305111688363
10
150.125
20
-102.31305111688363
42
-0.41421356237309503
10
150.625
20
-102.81305111688363
10
150.62499999999997
20
-113.71305111698369
42
0.41421356237309503
10
151.625
20
-114.71305111698368
10
177.69367965645884
20
-114.71305111698369
42
-0.1989123673796602
10
178.75433982823867
20
-115.15239094520388
10
181.40066017179831
20
-117.7987112887635
42
0.19891236737966234
10
182.46132034357814
20
-118.23805111698368
10
185.763167732569
20
-118.2380511169837
42
-0.17229961697292337
10
186.39390063954139
20
-118.46205111694366
42
0.17229961697292812
10
187.34000000000003
20
-118.79805111688363
10
189.00999999999999
20
-118.79805111688358
42
0.17229961697292626
10
189.95609936045864
20
-118.46205111694367
42
-0.17229961697292634
10
190.58683226743102
20
-118.2380511169837
10
206.22003726542377
20
-118.23805111698371
42
-0.19891236737965362
10
207.28069743720357
20
-118.67739094520388
10
212.01445464804948
20
-123.41114815604976
42
0.41421356237309392
10
216.61064872576205
20
-123.41114815604979
10
221.34440593660796
20
-118.67739094520388
42
-0.19891236737965581
10
222.40506610838776
20
-118.23805111698371
10
301.46998557819381
20
-118.23805111698371
42
-0.1989123673796602
10
302.5306457499737
20
-118.6773909452039
10
307.26440296096837
20
-123.41114815619859
42
0.4142135623731007
10
311.86059703868102
20
-123.41114815619861
10
316.59435424967563
20
-118.6773909452039
42
-0.19891236737965801
10
317.65501442145546
20
-118.23805111698371
10
346.63749999999993
20
-118.2380511169837
42
0.41421356237309503
0
LWPOLYLINE
5
132
100
AcDbEntity
8
0
100
AcDbPolyline
90
8
70
1
43
0.0
10
259.69999999999999
20
-26.113051116883565
42
0.41421356237309503
10
258.94999999999999
20
-26.863051116883568
10
258.94999999999999
20
-38.163051116883565
42
0.41421356237309503
10
259.69999999999999
20
-38.913051116883565
10
273.69999999999999
20
-38.913051116883565
42
0.41421356237309503
10
274.44999999999999
20
-38.163051116883565
10
274.44999999999999
20
-26.863051116883568
42
0.41421356237309503
10
273.69999999999999
20
-26.113051116883565
0
LWPOLYLINE
5
133
100
AcDbEntity
8
0
100
AcDbPolyline
90
8
70
1
43
0.0
10
226.36250000000004
20
-64.213051116883562
42
0.41421356237309503
10
225.61250000000004
20
-64.963051116883562
10
225.61250000000004
20
-76.263051116883588
42
0.41421356237309503
10
226.36250000000004
20
-77.013051116883588
10
240.36250000000001
20
-77.013051116883588
42
0.41421356237309503
10
241.11250000000001
20
-76.263051116883588
10
241.11250000000001
20
-64.963051116883562
42
0.41421356237309503
10
240.36250000000001
20
-64.213051116883562
0
LWPOLYLINE
5
134
100
AcDbEntity
8
0
100
AcDbPolyline
90
8
70
1
43
0.0
10
6.5374999999999908
20
-114.36305111688358
10
6.537499999999997
20
-103.0630511168836
42
-0.41421356237309503
10
7.2874999999999899
20
-102.3130511168836
10
21.287499999999994
20
-102.3130511168836
42
-0.41421356237309503
10
22.037499999999994
20
-103.0630511168836
10
22.037499999999966
20
-114.36305111688358
42
-0.41421356237309503
10
21.287499999999994
20
-115.11305111688357
10
7.287499999999989
20
-115.11305111688358
42
-0.41421356237309465
0
LWPOLYLINE
5
135
100
AcDbEntity
8
0
100
AcDbPolyline
90
8
70
1
43
0.0
10
120.83750000000001
20
-95.313051116883571
10
120.83750000000001
20
-84.013051116883588
42
-0.41421356237309503
10
121.58749999999999
20
-83.263051116883588
10
135.58750000000001
20
-83.263051116883588
42
-0.41421356237309503
10
136.33749999999998
20
-84.013051116883588
10
136.33749999999998
20
-95.313051116883571
42
-0.41421356237309503
10
135.58750000000001
20
-96.063051116883571
10
121.58749999999999
20
-96.063051116883571
42
-0.41421356237309503
0
LWPOLYLINE
5
136
100
AcDbEntity
8
0
100
AcDbPolyline
90
8
70
1
43
0.0
10
197.03750000000002
20
-95.313051116883571
10
197.03750000000002
20
-84.013051116883588
42
-0.41421356237309503
10
197.78750000000002
20
-83.263051116883588
10
211.78750000000002
20
-83.263051116883588
42
-0.41421356237309503
10
212.53749999999999
20
-84.013051116883588
10
212.53749999999999
20
-95.313051116883571
42
-0.41421356237309503
10
211.78750000000002
20
-96.063051116883571
10
197.78750000000002
20
-96.063051116883571
42
-0.41421356237309503
0
LWPOLYLINE
5
137
100
AcDbEntity
8
0
100
AcDbPolyline
90
8
70
1
43
0.0
10
263.71249999999998
20
-114.36305111688358
10
263.71249999999998
20
-103.0630511168836
42
-0.41421356237309503
10
264.46249999999998
20
-102.3130511168836
10
278.46249999999998
20
-102.3130511168836
42
-0.41421356237309503
10
279.21249999999998
20
-103.0630511168836
10
279.21249999999992
20
-114.36305111688358
42
-0.41421356237309503
10
278.46249999999998
20
-115.11305111688357
10
264.46249999999998
20
-115.11305111688358
42
-0.41421356237309503
0
LWPOLYLINE
5
138
100
AcDbEntity
8
0
100
AcDbPolyline
90
8
70
1
43
0.0
10
330.38749999999999
20
-114.36305111688358
10
330.38750000000005
20
-103.0630511168836
42
-0.41421356237309503
10
331.13750000000005
20
-102.3130511168836
10
345.13750000000005
20
-102.31305111688357
42
-0.41421356237309503
10
345.88750000000005
20
-103.0630511168836
10
345.88749999999999
20
-114.36305111688358
42
-0.41421356237309503
10
345.13750000000005
20
-115.11305111688357
10
331.13750000000005
20
-115.11305111688361
42
-0.41421356237309503
0
LWPOLYLINE
5
139
100
AcDbEntity
8
0
100
AcDbPolyline
90
8
70
1
43
0.0
10
8.9187499999999904
20
-76.263051116883588
10
8.9187499999999869
20
-64.963051116883562
42
-0.41421356237309503
10
9.6687499999999886
20
-64.213051116883562
10
23.668749999999989
20
-64.213051116883562
42
-0.41421356237309503
10
24.418749999999992
20
-64.963051116883562
10
24.418749999999992
20
-76.263051116883588
42
-0.41421356237309503
10
23.668749999999989
20
-77.013051116883588
10
9.6687499999999904
20
-77.013051116883588
42
-0.41421356237309548
0
LWPOLYLINE
5
140
100
AcDbEntity
8
0
100
AcDbPolyline
90
8
70
1
43
0.0
10
93.012499999999989
20
-64.213051116883562
10
107.0125
20
-64.213051116883577
42
-0.41421356237309503
10
107.76249999999999
20
-64.963051116883562
10
107.76250000000002
20
-76.263051116883588
42
-0.41421356237309503
10
107.0125
20
-77.013051116883588
10
93.012499999999989
20
-77.013051116883588
42
-0.41421356237309503
10
92.262500000000003
20
-76.263051116883588
10
92.262500000000003
20
-64.963051116883562
42
-0.41421356237309503
0
LWPOLYLINE
5
141
100
AcDbEntity
8
0
100
AcDbPolyline
90
8
70
1
43
0.0
10
30.349999999999994
20
-57.213051116883577
10
30.349999999999994
20
-45.913051116883572
42
-0.41421356237309503
10
31.099999999999994
20
-45.163051116883572
10
45.099999999999994
20
-45.163051116883572
42
-0.41421356237309503
10
45.850000000000001
20
-45.913051116883572
10
45.850000000000009
20
-57.213051116883577
42
-0.41421356237309503
10
45.099999999999994
20
-57.963051116883584
10
31.099999999999994
20
-57.963051116883577
42
-0.41421356237309503
0
LWPOLYLINE
5
142
100
AcDbEntity
8
0
100
AcDbPolyline
90
8
70
1
43
0.0
10
107.29999999999998
20
-45.163051116883565
10
121.29999999999998
20
-45.16305111688358
42
-0.41421356237309503
10
122.04999999999998
20
-45.913051116883572
10
122.05
20
-57.213051116883577
42
-0.41421356237309503
10
121.29999999999998
20
-57.963051116883584
10
107.29999999999998
20
-57.963051116883562
42
-0.41421356237309503
10
106.55
20
-57.213051116883577
10
106.54999999999998
20
-45.913051116883572
42
-0.41421356237309503
0
LWPOLYLINE
5
143
100
AcDbEntity
8
0
100
AcDbPolyline
90
8
70
1
43
0.0
10
182.75000000000003
20
-57.213051116883577
10
182.75000000000003
20
-45.913051116883572
42
-0.41421356237309503
10
183.5
20
-45.163051116883572
10
197.5
20
-45.16305111688358
42
-0.41421356237309503
10
198.25
20
-45.913051116883572
10
198.25000000000003
20
-57.213051116883577
42
-0.41421356237309503
10
197.5
20
-57.963051116883584
10
183.5
20
-57.963051116883562
42
-0.41421356237309503
0
LWPOLYLINE
5
144
100
AcDbEntity
8
0
100
AcDbPolyline
90
8
70
1
43
0.0
10
264.46249999999998
20
-45.163051116883565
10
278.46249999999998
20
-45.16305111688358
42
-0.41421356237309503
10
279.21249999999998
20
-45.913051116883572
10
279.21249999999998
20
-57.213051116883577
42
-0.41421356237309503
10
278.46249999999998
20
-57.963051116883584
10
264.46249999999998
20
-57.963051116883562
42
-0.41421356237309503
10
263.71249999999998
20
-57.213051116883577
10
263.71249999999998
20
-45.913051116883572
42
-0.41421356237309503
0
LWPOLYLINE
5
145
100
AcDbEntity
8
0
100
AcDbPolyline
90
8
70
1
43
0.0
10
2.5249999999999901
20
-26.113051116883565
10
16.524999999999991
20
-26.113051116883568
42
-0.41421356237309503
10
17.274999999999988
20
-26.863051116883568
10
17.274999999999991
20
-38.163051116883565
42
-0.41421356237309503
10
16.524999999999991
20
-38.913051116883565
10
2.5249999999999906
20
-38.913051116883565
42
-0.41421356237309531
10
1.7749999999999899
20
-38.163051116883565
10
1.7749999999999884
20
-26.863051116883568
42
-0.41421356237309503
0
LWPOLYLINE
5
146
100
AcDbEntity
8
0
100
AcDbPolyline
90
8
70
1
43
0.0
10
77.97499999999998
20
-38.163051116883565
10
77.97499999999998
20
-26.863051116883568
42
-0.41421356237309503
10
78.724999999999994
20
-26.113051116883565
10
92.724999999999966
20
-26.113051116883575
42
-0.41421356237309503
10
93.474999999999966
20
-26.863051116883568
10
93.474999999999966
20
-38.163051116883565
42
-0.41421356237309503
10
92.724999999999966
20
-38.913051116883565
10
78.724999999999994
20
-38.913051116883565
42
-0.41421356237309503
0
LWPOLYLINE
5
147
100
AcDbEntity
8
0
100
AcDbPolyline
90
8
70
1
43
0.0
10
154.92500000000001
20
-26.113051116883565
10
168.92500000000001
20
-26.113051116883575
42
-0.41421356237309503
10
169.67500000000001
20
-26.863051116883568
10
169.67500000000001
20
-38.163051116883565
42
-0.41421356237309503
10
168.92500000000001
20
-38.913051116883565
10
154.92500000000001
20
-38.913051116883558
42
-0.41421356237309503
10
154.17500000000001
20
-38.163051116883565
10
154.17500000000001
20
-26.863051116883568
42
-0.41421356237309503
0
LWPOLYLINE
5
148
100
AcDbEntity
8
0
100
AcDbPolyline
90
8
70
1
43
0.0
10
230.375
20
-38.163051116883565
10
230.375
20
-26.863051116883568
42
-0.41421356237309503
10
231.125
20
-26.113051116883565
10
245.12500000000003
20
-26.113051116883575
42
-0.41421356237309503
10
245.87500000000003
20
-26.863051116883568
10
245.87500000000003
20
-38.163051116883565
42
-0.41421356237309503
10
245.12500000000003
20
-38.913051116883565
10
231.125
20
-38.913051116883558
42
-0.41421356237309503
0
LWPOLYLINE
5
149
100
AcDbEntity
8
0
100
AcDbPolyline
90
8
70
1
43
0.0
10
39.874999999999986
20
-14.350551116883565
10
39.874999999999986
20
-3.0505511168835637
42
-0.41421356237309481
10
40.624999999999993
20
-2.3005511168835646
10
54.624999999999993
20
-2.3005511168835624
42
-0.41421356237309503
10
55.375
20
-3.0505511168835642
10
55.375
20
-14.350551116883565
42
-0.41421356237309503
10
54.624999999999993
20
-15.100551116883567
10
40.624999999999993
20
-15.100551116883567
42
-0.41421356237309503
0
LWPOLYLINE
5
150
100
AcDbEntity
8
0
100
AcDbPolyline
90
8
70
1
43
0.0
10
125.59999999999999
20
-14.350551116883565
42
0.41421356237309503
10
126.34999999999998
20
-15.10055111688356
10
140.34999999999999
20
-15.100551116883567
42
0.41421356237309503
10
141.09999999999997
20
-14.350551116883565
10
141.09999999999997
20
-3.0505511168835642
42
0.41421356237309503
10
140.34999999999999
20
-2.3005511168835646
10
126.34999999999998
20
-2.3005511168835646
42
0.41421356237309481
10
125.59999999999999
20
-3.0505511168835642
0
LWPOLYLINE
5
151
100
AcDbEntity
8
0
100
AcDbPolyline
90
8
70
1
43
0.0
10
211.32499999999999
20
-14.350551116883565
10
211.32499999999999
20
-3.0505511168835637
42
-0.41421356237309481
10
212.07499999999999
20
-2.3005511168835646
10
226.07500000000002
20
-2.3005511168835713
42
-0.41421356237309503
10
226.82500000000002
20
-3.0505511168835642
10
226.82500000000002
20
-14.350551116883565
42
-0.41421356237309503
10
226.07500000000002
20
-15.100551116883567
10
212.07499999999999
20
-15.100551116883558
42
-0.41421356237309503
0
LWPOLYLINE
5
152
100
AcDbEntity
8
0
100
AcDbPolyline
90
8
70
1
43
0.0
10
292.28750000000002
20
-14.350551116883565
10
292.28750000000002
20
-3.0505511168835642
42
-0.41421356237309503
10
293.03750000000002
20
-2.3005511168835651
10
307.03750000000002
20
-2.3005511168835713
42
-0.41421356237309548
10
307.78750000000002
20
-3.0505511168835655
10
307.78750000000002
20
-14.350551116883565
42
-0.41421356237309503
10
307.03750000000002
20
-15.100551116883567
10
293.03750000000002
20
-15.100551116883558
42
-0.41421356237309503
0
LWPOLYLINE
5
153
100
AcDbEntity
8
0
100
AcDbPolyline
90
8
70
1
43
0.0
10
311.33749999999998
20
-14.350551116883565
10
311.33749999999998
20
-3.0505511168835642
42
-0.41421356237309503
10
312.08749999999998
20
-2.3005511168835651
10
326.08749999999998
20
-2.3005511168835358
42
-0.41421356237309548
10
326.83750000000003
20
-3.0505511168835655
10
326.83750000000003
20
-14.350551116883565
42
-0.41421356237309503
10
326.08749999999998
20
-15.100551116883567
10
312.08749999999998
20
-15.100551116883558
42
-0.41421356237309503
0
LWPOLYLINE
5
154
100
AcDbEntity
8
0
100
AcDbPolyline
90
8
70
1
43
0.0
10
230.375
20
-14.350551116883565
10
230.375
20
-3.0505511168835637
42
-0.41421356237309481
10
231.125
20
-2.3005511168835646
10
245.12500000000003
20
-2.3005511168835713
42
-0.41421356237309503
10
245.87500000000003
20
-3.0505511168835642
10
245.87500000000003
20
-14.350551116883565
42
-0.41421356237309503
10
245.12500000000003
20
-15.100551116883567
10
231.125
20
-15.100551116883558
42
-0.41421356237309503
0
LWPOLYLINE
5
155
100
AcDbEntity
8
0
100
AcDbPolyline
90
8
70
1
43
0.0
10
144.65000000000001
20
-14.350551116883565
10
144.65000000000001
20
-3.0505511168835637
42
-0.41421356237309481
10
145.39999999999998
20
-2.3005511168835646
10
159.40000000000001
20
-2.3005511168835535
42
-0.41421356237309503
10
160.15000000000001
20
-3.0505511168835642
10
160.15000000000001
20
-14.350551116883565
42
-0.41421356237309503
10
159.40000000000001
20
-15.100551116883567
10
145.39999999999998
20
-15.100551116883558
42
-0.41421356237309503
0
LWPOLYLINE
5
156
100
AcDbEntity
8
0
100
AcDbPolyline
90
8
70
1
43
0.0
10
58.92499999999999
20
-14.350551116883565
10
58.92499999999999
20
-3.0505511168835637
42
-0.41421356237309481
10
59.674999999999997
20
-2.3005511168835646
10
73.674999999999983
20
-2.3005511168835624
42
-0.41421356237309503
10
74.424999999999983
20
-3.0505511168835642
10
74.424999999999983
20
-14.350551116883565
42
-0.41421356237309503
10
73.674999999999983
20
-15.100551116883567
10
59.674999999999997
20
-15.100551116883567
42
-0.41421356237309503
0
LWPOLYLINE
5
157
100
AcDbEntity
8
0
100
AcDbPolyline
90
8
70
1
43
0.0
10
173.22500000000002
20
-38.163051116883565
10
173.22500000000002
20
-26.863051116883568
42
-0.41421356237309503
10
173.97500000000002
20
-26.113051116883565
10
187.97499999999999
20
-26.113051116883575
42
-0.41421356237309503
10
188.72499999999999
20
-26.863051116883568
10
188.72499999999999
20
-38.163051116883565
42
-0.41421356237309503
10
187.97499999999999
20
-38.913051116883565
10
173.97500000000002
20
-38.913051116883558
42
-0.41421356237309503
0
LWPOLYLINE
5
158
100
AcDbEntity
8
0
100
AcDbPolyline
90
8
70
1
43
0.0
10
97.025000000000006
20
-38.163051116883565
42
0.41421356237309503
10
97.775000000000006
20
-38.913051116883558
10
111.77500000000001
20
-38.913051116883565
42
0.41421356237309503
10
112.52499999999999
20
-38.163051116883565
10
112.52499999999999
20
-26.863051116883568
42
0.41421356237309503
10
111.77500000000001
20
-26.113051116883565
10
97.775000000000006
20
-26.113051116883565
42
0.41421356237309503
10
97.025000000000006
20
-26.863051116883568
0
LWPOLYLINE
5
159
100
AcDbEntity
8
0
100
AcDbPolyline
90
8
70
1
43
0.0
10
20.824999999999992
20
-38.163051116883565
10
20.824999999999992
20
-26.863051116883568
42
-0.41421356237309503
10
21.574999999999992
20
-26.113051116883565
10
35.574999999999996
20
-26.113051116883565
42
-0.41421356237309503
10
36.324999999999996
20
-26.863051116883568
10
36.324999999999996
20
-38.163051116883565
42
-0.41421356237309503
10
35.574999999999996
20
-38.913051116883565
10
21.574999999999992
20
-38.913051116883565
42
-0.41421356237309503
0
LWPOLYLINE
5
160
100
AcDbEntity
8
0
100
AcDbPolyline
90
8
70
1
43
0.0
10
292.28750000000002
20
-57.213051116883577
10
292.28750000000002
20
-45.913051116883572
42
-0.41421356237309503
10
293.03750000000002
20
-45.163051116883572
10
307.03750000000002
20
-45.16305111688358
42
-0.41421356237309503
10
307.78750000000002
20
-45.913051116883572
10
307.78750000000002
20
-57.213051116883577
42
-0.41421356237309503
10
307.03750000000002
20
-57.963051116883584
10
293.03750000000002
20
-57.963051116883562
42
-0.41421356237309503
0
LWPOLYLINE
5
161
100
AcDbEntity
8
0
100
AcDbPolyline
90
8
70
1
43
0.0
10
201.80000000000004
20
-57.213051116883577
42
0.41421356237309503
10
202.55000000000001
20
-57.963051116883577
10
216.55000000000001
20
-57.963051116883584
42
0.41421356237309503
10
217.30000000000001
20
-57.213051116883577
10
217.30000000000001
20
-45.913051116883572
42
0.41421356237309503
10
216.55000000000001
20
-45.163051116883565
10
202.55000000000001
20
-45.163051116883572
42
0.41421356237309503
10
201.80000000000004
20
-45.913051116883572
0
LWPOLYLINE
5
162
100
AcDbEntity
8
0
100
AcDbPolyline
90
8
70
1
43
0.0
10
125.59999999999999
20
-57.213051116883577
10
125.59999999999999
20
-45.913051116883572
42
-0.41421356237309503
10
126.34999999999998
20
-45.163051116883572
10
140.34999999999999
20
-45.16305111688358
42
-0.41421356237309503
10
141.09999999999997
20
-45.913051116883572
10
141.09999999999999
20
-57.213051116883577
42
-0.41421356237309503
10
140.34999999999999
20
-57.963051116883584
10
126.34999999999998
20
-57.963051116883562
42
-0.41421356237309503
0
LWPOLYLINE
5
163
100
AcDbEntity
8
0
100
AcDbPolyline
90
8
70
1
43
0.0
10
49.399999999999991
20
-57.213051116883577
42
0.41421356237309503
10
50.149999999999999
20
-57.963051116883584
10
64.150000000000006
20
-57.963051116883584
42
0.41421356237309503
10
64.900000000000006
20
-57.213051116883577
10
64.900000000000006
20
-45.913051116883572
42
0.41421356237309503
10
64.150000000000006
20
-45.163051116883565
10
50.149999999999999
20
-45.163051116883572
42
0.41421356237309503
10
49.399999999999991
20
-45.913051116883572
0
LWPOLYLINE
5
164
100
AcDbEntity
8
0
100
AcDbPolyline
90
8
70
1
43
0.0
10
111.3125
20
-76.263051116883588
10
111.31249999999997
20
-64.963051116883562
42
-0.41421356237309503
10
112.06249999999999
20
-64.213051116883562
10
126.0625
20
-64.213051116883577
42
-0.41421356237309503
10
126.81249999999999
20
-64.963051116883562
10
126.81249999999999
20
-76.263051116883588
42
-0.41421356237309503
10
126.0625
20
-77.013051116883588
10
112.06249999999999
20
-77.013051116883588
42
-0.41421356237309503
0
LWPOLYLINE
5
165
100
AcDbEntity
8
0
100
AcDbPolyline
90
8
70
1
43
0.0
10
35.112499999999983
20
-76.263051116883588
10
35.112499999999983
20
-64.963051116883562
42
-0.41421356237309503
10
35.86249999999999
20
-64.213051116883562
10
49.86249999999999
20
-64.213051116883562
42
-0.41421356237309503
10
50.612499999999997
20
-64.963051116883562
10
50.612499999999997
20
-76.263051116883588
42
-0.41421356237309503
10
49.86249999999999
20
-77.013051116883588
10
35.86249999999999
20
-77.013051116883588
42
-0.41421356237309503
0
LWPOLYLINE
5
166
100
AcDbEntity
8
0
100
AcDbPolyline
90
8
70
1
43
0.0
10
292.28750000000002
20
-114.36305111688358
10
292.28750000000002
20
-103.0630511168836
42
-0.41421356237309503
10
293.03750000000002
20
-102.3130511168836
10
307.03750000000002
20
-102.3130511168836
42
-0.41421356237309503
10
307.78750000000002
20
-103.0630511168836
10
307.78750000000002
20
-114.36305111688358
42
-0.41421356237309503
10
307.03750000000002
20
-115.11305111688357
10
293.03750000000002
20
-115.11305111688358
42
-0.41421356237309503
0
LWPOLYLINE
5
167
100
AcDbEntity
8
0
100
AcDbPolyline
90
8
70
1
43
0.0
10
139.88749999999999
20
-95.313051116883571
10
139.88749999999999
20
-84.013051116883588
42
-0.41421356237309503
10
140.63749999999996
20
-83.263051116883588
10
154.63749999999999
20
-83.263051116883588
42
-0.41421356237309503
10
155.38749999999996
20
-84.013051116883588
10
155.38749999999996
20
-95.313051116883571
42
-0.41421356237309503
10
154.63749999999999
20
-96.063051116883571
10
140.63749999999996
20
-96.063051116883571
42
-0.41421356237309503
0
LWPOLYLINE
5
168
100
AcDbEntity
8
0
100
AcDbPolyline
90
8
70
1
43
0.0
10
30.349999999999994
20
-114.36305111688358
10
30.350000000000001
20
-103.0630511168836
42
-0.41421356237309503
10
31.099999999999994
20
-102.3130511168836
10
45.099999999999994
20
-102.3130511168836
42
-0.41421356237309503
10
45.850000000000001
20
-103.0630511168836
10
45.849999999999973
20
-114.36305111688358
42
-0.41421356237309503
10
45.099999999999994
20
-115.11305111688357
10
31.099999999999994
20
-115.11305111688358
42
-0.41421356237309503
0
LWPOLYLINE
5
169
100
AcDbEntity
8
0
100
AcDbPolyline
90
8
70
1
43
0.0
10
177.98750000000001
20
-95.313051116883571
10
177.98750000000001
20
-84.013051116883588
42
-0.41421356237309503
10
178.73750000000001
20
-83.263051116883588
10
192.73750000000004
20
-83.263051116883588
42
-0.41421356237309503
10
193.48750000000001
20
-84.013051116883588
10
193.48750000000001
20
-95.313051116883571
42
-0.41421356237309503
10
192.73750000000004
20
-96.063051116883571
10
178.73750000000001
20
-96.063051116883571
42
-0.41421356237309503
0
LWPOLYLINE
5
170
100
AcDbEntity
8
0
100
AcDbPolyline
90
8
70
1
43
0.0
10
216.08750000000003
20
-95.313051116883571
10
216.08750000000003
20
-84.013051116883588
42
-0.41421356237309503
10
216.83750000000003
20
-83.263051116883588
10
230.83750000000003
20
-83.263051116883588
42
-0.41421356237309503
10
231.58750000000001
20
-84.013051116883588
10
231.58750000000001
20
-95.313051116883571
42
-0.41421356237309503
10
230.83750000000003
20
-96.063051116883571
10
216.83750000000003
20
-96.063051116883571
42
-0.41421356237309503
0
LWPOLYLINE
5
171
100
AcDbEntity
8
0
100
AcDbPolyline
90
8
70
1
43
0.0
10
239.90000000000003
20
-114.36305111688358
10
239.90000000000003
20
-103.0630511168836
42
-0.41421356237309503
10
240.65000000000001
20
-102.3130511168836
10
254.65000000000003
20
-102.3130511168836
42
-0.41421356237309503
10
255.40000000000003
20
-103.0630511168836
10
255.39999999999998
20
-114.36305111688358
42
-0.41421356237309503
10
254.65000000000003
20
-115.11305111688357
10
240.65000000000001
20
-115.11305111688358
42
-0.41421356237309503
0
LWPOLYLINE
5
172
100
AcDbEntity
8
0
100
AcDbPolyline
90
8
70
1
43
0.0
10
312.08749999999998
20
-102.3130511168836
10
326.08749999999998
20
-102.31305111688357
42
-0.41421356237309503
10
326.83750000000003
20
-103.0630511168836
10
326.83749999999998
20
-114.36305111688358
42
-0.41421356237309503
10
326.08749999999998
20
-115.11305111688357
10
312.08749999999998
20
-115.11305111688358
42
-0.41421356237309503
10
311.33749999999998
20
-114.36305111688358
10
311.33749999999998
20
-103.0630511168836
42
-0.41421356237309503
0
LWPOLYLINE
5
173
100
AcDbEntity
8
0
100
AcDbPolyline
90
8
70
1
43
0.0
10
73.212500000000006
20
-76.263051116883588
10
73.212500000000006
20
-64.963051116883562
42
-0.41421356237309503
10
73.962500000000006
20
-64.213051116883562
10
87.962499999999991
20
-64.213051116883577
42
-0.41421356237309503
10
88.712499999999977
20
-64.963051116883562
10
88.712500000000006
20
-76.263051116883588
42
-0.41421356237309503
10
87.962499999999991
20
-77.013051116883588
10
73.962500000000006
20
-77.013051116883588
42
-0.41421356237309503
0
LWPOLYLINE
5
174
100
AcDbEntity
8
0
100
AcDbPolyline
90
8
70
1
43
0.0
10
149.41249999999999
20
-76.263051116883588
10
149.41249999999997
20
-64.963051116883562
42
-0.41421356237309503
10
150.16249999999997
20
-64.213051116883562
10
164.16250000000002
20
-64.213051116883577
42
-0.41421356237309503
10
164.91250000000002
20
-64.963051116883562
10
164.91250000000002
20
-76.263051116883588
42
-0.41421356237309503
10
164.16250000000002
20
-77.013051116883588
10
150.16249999999997
20
-77.013051116883588
42
-0.41421356237309503
0
LWPOLYLINE
5
175
100
AcDbEntity
8
0
100
AcDbPolyline
90
8
70
1
43
0.0
10
6.5374999999999908
20
-57.213051116883577
10
6.5374999999999881
20
-45.913051116883572
42
-0.41421356237309503
10
7.2874999999999899
20
-45.163051116883572
10
21.287499999999994
20
-45.163051116883572
42
-0.41421356237309503
10
22.037499999999994
20
-45.913051116883572
10
22.037500000000001
20
-57.213051116883577
42
-0.41421356237309503
10
21.287499999999994
20
-57.963051116883584
10
7.287499999999989
20
-57.963051116883577
42
-0.41421356237309465
0
LWPOLYLINE
5
176
100
AcDbEntity
8
0
100
AcDbPolyline
90
8
70
1
43
0.0
10
87.5
20
-57.213051116883577
10
87.5
20
-45.913051116883572
42
-0.41421356237309503
10
88.25
20
-45.163051116883572
10
102.25
20
-45.16305111688358
42
-0.41421356237309503
10
102.99999999999999
20
-45.913051116883572
10
103
20
-57.213051116883577
42
-0.41421356237309503
10
102.25
20
-57.963051116883584
10
88.25
20
-57.963051116883562
42
-0.41421356237309503
0
LWPOLYLINE
5
177
100
AcDbEntity
8
0
100
AcDbPolyline
90
8
70
1
43
0.0
10
163.70000000000002
20
-57.213051116883577
10
163.70000000000002
20
-45.913051116883572
42
-0.41421356237309503
10
164.44999999999999
20
-45.163051116883572
10
178.44999999999999
20
-45.16305111688358
42
-0.41421356237309503
10
179.19999999999999
20
-45.913051116883572
10
179.20000000000002
20
-57.213051116883577
42
-0.41421356237309503
10
178.44999999999999
20
-57.963051116883584
10
164.44999999999999
20
-57.963051116883562
42
-0.41421356237309503
0
LWPOLYLINE
5
178
100
AcDbEntity
8
0
100
AcDbPolyline
90
8
70
1
43
0.0
10
239.90000000000003
20
-57.213051116883577
10
239.90000000000003
20
-45.913051116883572
42
-0.41421356237309503
10
240.65000000000001
20
-45.163051116883572
10
254.65000000000003
20
-45.16305111688358
42
-0.41421356237309503
10
255.40000000000003
20
-45.913051116883572
10
255.40000000000006
20
-57.213051116883577
42
-0.41421356237309503
10
254.65000000000003
20
-57.963051116883584
10
240.65000000000001
20
-57.963051116883562
42
-0.41421356237309503
0
LWPOLYLINE
5
179
100
AcDbEntity
8
0
100
AcDbPolyline
90
8
70
1
43
0.0
10
330.38749999999999
20
-57.213051116883577
10
330.38749999999999
20
-45.913051116883572
42
-0.41421356237309503
10
331.13750000000005
20
-45.163051116883572
10
345.13750000000005
20
-45.163051116883544
42
-0.41421356237309503
10
345.88750000000005
20
-45.913051116883572
10
345.88750000000005
20
-57.213051116883577
42
-0.41421356237309503
10
345.13750000000005
20
-57.963051116883584
10
331.13750000000005
20
-57.963051116883605
42
-0.41421356237309503
0
LWPOLYLINE
5
180
100
AcDbEntity
8
0
100
AcDbPolyline
90
8
70
1
43
0.0
10
58.92499999999999
20
-38.163051116883565
10
58.92499999999999
20
-26.863051116883568
42
-0.41421356237309503
10
59.674999999999997
20
-26.113051116883565
10
73.674999999999983
20
-26.113051116883565
42
-0.41421356237309503
10
74.424999999999983
20
-26.863051116883568
10
74.424999999999983
20
-38.163051116883565
42
-0.41421356237309503
10
73.674999999999983
20
-38.913051116883565
10
59.674999999999997
20
-38.913051116883565
42
-0.41421356237309503
0
LWPOLYLINE
5
181
100
AcDbEntity
8
0
100
AcDbPolyline
90
8
70
1
43
0.0
10
135.125
20
-38.163051116883565
10
135.125
20
-26.863051116883568
42
-0.41421356237309503
10
135.875
20
-26.113051116883565
10
149.875
20
-26.113051116883575
42
-0.41421356237309503
10
150.62499999999997
20
-26.863051116883568
10
150.625
20
-38.163051116883565
42
-0.41421356237309503
10
149.875
20
-38.913051116883565
10
135.875
20
-38.913051116883558
42
-0.41421356237309503
0
LWPOLYLINE
5
182
100
AcDbEntity
8
0
100
AcDbPolyline
90
8
70
1
43
0.0
10
211.32499999999999
20
-38.163051116883565
10
211.32499999999999
20
-26.863051116883568
42
-0.41421356237309503
10
212.07499999999999
20
-26.113051116883565
10
226.07500000000002
20
-26.113051116883575
42
-0.41421356237309503
10
226.82500000000002
20
-26.863051116883568
10
226.82500000000002
20
-38.163051116883565
42
-0.41421356237309503
10
226.07500000000002
20
-38.913051116883565
10
212.07499999999999
20
-38.913051116883558
42
-0.41421356237309503
0
LWPOLYLINE
5
183
100
AcDbEntity
8
0
100
AcDbPolyline
90
8
70
1
43
0.0
10
2.5249999999999901
20
-2.3005511168835646
10
16.524999999999991
20
-2.3005511168835646
42
-0.41421356237309503
10
17.274999999999988
20
-3.0505511168835642
10
17.274999999999991
20
-14.350551116883565
42
-0.41421356237309503
10
16.524999999999991
20
-15.100551116883567
10
2.5249999999999906
20
-15.100551116883565
42
-0.41421356237309531
10
1.7749999999999899
20
-14.350551116883565
10
1.7749999999999906
20
-3.0505511168835637
42
-0.41421356237309481
0
LWPOLYLINE
5
184
100
AcDbEntity
8
0
100
AcDbPolyline
90
8
70
1
43
0.0
10
97.025000000000006
20
-14.350551116883565
10
97.025000000000006
20
-3.0505511168835637
42
-0.41421356237309481
10
97.775000000000006
20
-2.3005511168835646
10
111.77500000000001
20
-2.3005511168835713
42
-0.41421356237309503
10
112.52499999999999
20
-3.0505511168835642
10
112.52500000000001
20
-14.350551116883565
42
-0.41421356237309503
10
111.77500000000001
20
-15.100551116883567
10
97.775000000000006
20
-15.100551116883558
42
-0.41421356237309503
0
LWPOLYLINE
5
185
100
AcDbEntity
8
0
100
AcDbPolyline
90
8
70
1
43
0.0
10
182.75000000000003
20
-14.350551116883565
10
182.75000000000003
20
-3.0505511168835637
42
-0.41421356237309481
10
183.5
20
-2.3005511168835646
10
197.5
20
-2.3005511168835713
42
-0.41421356237309503
10
198.25
20
-3.0505511168835642
10
198.25
20
-14.350551116883565
42
-0.41421356237309503
10
197.5
20
-15.100551116883567
10
183.5
20
-15.100551116883558
42
-0.41421356237309503
0
LWPOLYLINE
5
186
100
AcDbEntity
8
0
100
AcDbPolyline
90
8
70
1
43
0.0
10
268.47500000000002
20
-14.350551116883565
10
268.47500000000002
20
-3.0505511168835637
42
-0.41421356237309481
10
269.22500000000002
20
-2.3005511168835646
10
283.22500000000002
20
-2.3005511168835713
42
-0.41421356237309548
10
283.97500000000002
20
-3.0505511168835655
10
283.97500000000002
20
-14.350551116883565
42
-0.41421356237309503
10
283.22500000000002
20
-15.100551116883567
10
269.22500000000002
20
-15.100551116883558
42
-0.41421356237309503
0
LWPOLYLINE
5
187
100
AcDbEntity
8
0
100
AcDbPolyline
90
8
70
1
43
0.0
10
330.38749999999999
20
-14.350551116883565
10
330.38749999999999
20
-3.0505511168835642
42
-0.41421356237309503
10
331.13750000000005
20
-2.3005511168835651
10
345.13750000000005
20
-2.3005511168835358
42
-0.41421356237309548
10
345.88750000000005
20
-3.0505511168835655
10
345.88750000000005
20
-14.350551116883565
42
-0.41421356237309503
10
345.13750000000005
20
-15.100551116883567
10
331.13750000000005
20
-15.100551116883594
42
-0.41421356237309503
0
LWPOLYLINE
5
188
100
AcDbEntity
8
0
100
AcDbPolyline
90
8
70
1
43
0.0
10
249.42500000000001
20
-14.350551116883565
10
249.42500000000001
20
-3.0505511168835637
42
-0.41421356237309481
10
250.17500000000001
20
-2.3005511168835646
10
264.17500000000007
20
-2.3005511168835713
42
-0.41421356237309503
10
264.92500000000001
20
-3.0505511168835642
10
264.92500000000001
20
-14.350551116883565
42
-0.41421356237309503
10
264.17500000000007
20
-15.100551116883567
10
250.17500000000001
20
-15.100551116883558
42
-0.41421356237309503
0
LWPOLYLINE
5
189
100
AcDbEntity
8
0
100
AcDbPolyline
90
8
70
1
43
0.0
10
163.70000000000002
20
-14.350551116883565
10
163.70000000000002
20
-3.0505511168835637
42
-0.41421356237309481
10
164.44999999999999
20
-2.3005511168835646
10
178.44999999999999
20
-2.3005511168835713
42
-0.41421356237309503
10
179.19999999999999
20
-3.0505511168835642
10
179.19999999999999
20
-14.350551116883565
42
-0.41421356237309503
10
178.44999999999999
20
-15.100551116883567
10
164.44999999999999
20
-15.100551116883558
42
-0.41421356237309503
0
LWPOLYLINE
5
190
100
AcDbEntity
8
0
100
AcDbPolyline
90
8
70
1
43
0.0
10
77.97499999999998
20
-14.350551116883565
10
77.97499999999998
20
-3.0505511168835637
42
-0.41421356237309481
10
78.724999999999994
20
-2.3005511168835646
10
92.724999999999966
20
-2.3005511168835713
42
-0.41421356237309503
10
93.474999999999966
20
-3.0505511168835642
10
93.474999999999966
20
-14.350551116883565
42
-0.41421356237309503
10
92.724999999999966
20
-15.100551116883567
10
78.724999999999994
20
-15.100551116883567
42
-0.41421356237309503
0
LWPOLYLINE
5
191
100
AcDbEntity
8
0
100
AcDbPolyline
90
8
70
1
43
0.0
10
192.27500000000003
20
-38.163051116883565
10
192.27500000000003
20
-26.863051116883568
42
-0.41421356237309503
10
193.02500000000003
20
-26.113051116883565
10
207.02500000000001
20
-26.113051116883575
42
-0.41421356237309503
10
207.77500000000001
20
-26.863051116883568
10
207.77500000000001
20
-38.163051116883565
42
-0.41421356237309503
10
207.02500000000001
20
-38.913051116883565
10
193.02500000000003
20
-38.913051116883558
42
-0.41421356237309503
0
LWPOLYLINE
5
192
100
AcDbEntity
8
0
100
AcDbPolyline
90
8
70
1
43
0.0
10
116.075
20
-38.163051116883565
10
116.07499999999999
20
-26.863051116883568
42
-0.41421356237309503
10
116.82499999999999
20
-26.113051116883565
10
130.82499999999999
20
-26.113051116883575
42
-0.41421356237309503
10
131.57499999999996
20
-26.863051116883568
10
131.57499999999999
20
-38.163051116883565
42
-0.41421356237309503
10
130.82499999999999
20
-38.913051116883565
10
116.82499999999999
20
-38.913051116883558
42
-0.41421356237309503
0
LWPOLYLINE
5
193
100
AcDbEntity
8
0
100
AcDbPolyline
90
8
70
1
43
0.0
10
39.874999999999986
20
-38.163051116883565
10
39.874999999999986
20
-26.863051116883568
42
-0.41421356237309503
10
40.624999999999993
20
-26.113051116883565
10
54.624999999999993
20
-26.113051116883565
42
-0.41421356237309503
10
55.375
20
-26.863051116883568
10
55.375
20
-38.163051116883565
42
-0.41421356237309503
10
54.624999999999993
20
-38.913051116883565
10
40.624999999999993
20
-38.913051116883565
42
-0.41421356237309503
0
LWPOLYLINE
5
194
100
AcDbEntity
8
0
100
AcDbPolyline
90
8
70
1
43
0.0
10
311.33749999999998
20
-57.213051116883577
10
311.33749999999998
20
-45.913051116883572
42
-0.41421356237309503
10
312.08749999999998
20
-45.163051116883572
10
326.08749999999998
20
-45.163051116883544
42
-0.41421356237309503
10
326.83750000000003
20
-45.913051116883572
10
326.83750000000003
20
-57.213051116883577
42
-0.41421356237309503
10
326.08749999999998
20
-57.963051116883584
10
312.08749999999998
20
-57.963051116883562
42
-0.41421356237309503
0
LWPOLYLINE
5
195
100
AcDbEntity
8
0
100
AcDbPolyline
90
8
70
1
43
0.0
10
220.85000000000002
20
-57.213051116883577
10
220.85000000000002
20
-45.913051116883572
42
-0.41421356237309503
10
221.59999999999999
20
-45.163051116883572
10
235.60000000000002
20
-45.16305111688358
42
-0.41421356237309503
10
236.35000000000002
20
-45.913051116883572
10
236.35000000000005
20
-57.213051116883577
42
-0.41421356237309503
10
235.60000000000002
20
-57.963051116883584
10
221.59999999999999
20
-57.963051116883562
42
-0.41421356237309503
0
LWPOLYLINE
5
196
100
AcDbEntity
8
0
100
AcDbPolyline
90
8
70
1
43
0.0
10
144.65000000000001
20
-57.213051116883577
10
144.65000000000001
20
-45.913051116883572
42
-0.41421356237309503
10
145.39999999999998
20
-45.163051116883572
10
159.40000000000001
20
-45.163051116883565
42
-0.41421356237309503
10
160.15000000000001
20
-45.913051116883572
10
160.15000000000001
20
-57.213051116883577
42
-0.41421356237309503
10
159.40000000000001
20
-57.963051116883584
10
145.39999999999998
20
-57.963051116883562
42
-0.41421356237309503
0
LWPOLYLINE
5
197
100
AcDbEntity
8
0
100
AcDbPolyline
90
8
70
1
43
0.0
10
68.450000000000003
20
-57.213051116883577
10
68.450000000000003
20
-45.913051116883572
42
-0.41421356237309503
10
69.200000000000003
20
-45.163051116883572
10
83.199999999999989
20
-45.16305111688358
42
-0.41421356237309503
10
83.949999999999974
20
-45.913051116883572
10
83.949999999999989
20
-57.213051116883577
42
-0.41421356237309503
10
83.199999999999989
20
-57.963051116883584
10
69.200000000000003
20
-57.963051116883577
42
-0.41421356237309503
0
LWPOLYLINE
5
198
100
AcDbEntity
8
0
100
AcDbPolyline
90
8
70
1
43
0.0
10
130.36250000000001
20
-76.263051116883588
10
130.36249999999998
20
-64.963051116883562
42
-0.41421356237309503
10
131.11250000000001
20
-64.213051116883562
10
145.11250000000001
20
-64.213051116883577
42
-0.41421356237309503
10
145.86250000000001
20
-64.963051116883562
10
145.86250000000001
20
-76.263051116883588
42
-0.41421356237309503
10
145.11250000000001
20
-77.013051116883588
10
131.11250000000001
20
-77.013051116883588
42
-0.41421356237309503
0
LWPOLYLINE
5
199
100
AcDbEntity
8
0
100
AcDbPolyline
90
8
70
1
43
0.0
10
54.162499999999994
20
-76.263051116883588
10
54.162499999999994
20
-64.963051116883562
42
-0.41421356237309503
10
54.912500000000001
20
-64.213051116883562
10
68.91249999999998
20
-64.213051116883562
42
-0.41421356237309503
10
69.662499999999994
20
-64.963051116883562
10
69.662499999999994
20
-76.263051116883588
42
-0.41421356237309503
10
68.91249999999998
20
-77.013051116883588
10
54.912500000000001
20
-77.013051116883588
42
-0.41421356237309503
0
LWPOLYLINE
5
200
100
AcDbEntity
8
0
100
AcDbPolyline
90
8
70
1
43
0.0
10
311.33749999999998
20
-95.313051116883571
10
311.33749999999998
20
-84.013051116883588
42
-0.41421356237309503
10
312.08749999999998
20
-83.263051116883588
10
326.08749999999998
20
-83.26305111688356
42
-0.41421356237309503
10
326.83750000000003
20
-84.013051116883588
10
326.83750000000003
20
-95.313051116883571
42
-0.41421356237309503
10
326.08749999999998
20
-96.063051116883571
10
312.08749999999998
20
-96.063051116883571
42
-0.41421356237309503
0
LWPOLYLINE
5
201
100
AcDbEntity
8
0
100
AcDbPolyline
90
8
70
1
43
0.0
10
216.08750000000003
20
-114.36305111688358
10
216.08750000000003
20
-103.0630511168836
42
-0.41421356237309503
10
216.83750000000003
20
-102.3130511168836
10
230.83750000000003
20
-102.3130511168836
42
-0.41421356237309503
10
231.58750000000001
20
-103.0630511168836
10
231.58749999999998
20
-114.36305111688358
42
-0.41421356237309503
10
230.83750000000003
20
-115.11305111688357
10
216.83750000000003
20
-115.11305111688358
42
-0.41421356237309503
0
LWPOLYLINE
5
202
100
AcDbEntity
8
0
100
AcDbPolyline
90
8
70
1
43
0.0
10
158.9375
20
-95.313051116883571
10
158.9375
20
-84.013051116883588
42
-0.41421356237309503
10
159.68749999999997
20
-83.263051116883588
10
173.68750000000003
20
-83.263051116883588
42
-0.41421356237309503
10
174.4375
20
-84.013051116883588
10
174.4375
20
-95.313051116883571
42
-0.41421356237309503
10
173.68750000000003
20
-96.063051116883571
10
159.68749999999997
20
-96.063051116883571
42
-0.41421356237309503
0
LWPOLYLINE
5
203
100
AcDbEntity
8
0
100
AcDbPolyline
90
8
70
1
43
0.0
10
54.162499999999994
20
-114.36305111688358
10
54.162500000000009
20
-103.0630511168836
42
-0.41421356237309503
10
54.912500000000001
20
-102.3130511168836
10
68.91249999999998
20
-102.3130511168836
42
-0.41421356237309503
10
69.662499999999994
20
-103.0630511168836
10
69.662499999999966
20
-114.36305111688358
42
-0.41421356237309503
10
68.91249999999998
20
-115.11305111688357
10
54.912500000000001
20
-115.11305111688358
42
-0.41421356237309503
0
CIRCLE
5
204
100
AcDbEntity
8
0
100
AcDbCircle
10
107.57510694819993
20
-108.71367222038366
30
-6.2172489379008766e-14
40
3.1500000000000128
210
-1.2206488876933913e-19
220
0
230
1
0
CIRCLE
5
205
100
AcDbEntity
8
0
100
AcDbCircle
10
178.17510694819993
20
-108.71367222038366
30
-6.2172489379008766e-14
40
3.1499999999999773
210
-1.2206488876933913e-19
220
0
230
1
0
CIRCLE
5
206
100
AcDbEntity
8
0
100
AcDbCircle
10
214.31255168690575
20
-121.11305111719348
30
2.9976021664879227e-14
40
1.4999999999999858
210
-1.2206488875331703e-19
220
0
230
1
0
CIRCLE
5
207
100
AcDbEntity
8
0
100
AcDbCircle
10
47.625051687046671
20
-121.11305111688139
30
2.886579864025407e-14
40
1.4999999999999947
210
-1.2206488875331706e-19
220
0
230
1
0
CIRCLE
5
208
100
AcDbEntity
8
0
100
AcDbCircle
10
119.06249965640001
20
4.0744488831180163
30
0
40
1.5000000000000036
210
-1.2206488875331631e-19
220
0
230
1
0
CIRCLE
5
209
100
AcDbEntity
8
0
100
AcDbCircle
10
314.32499999994889
20
4.0744488831167498
30
-1.1102230246251565e-15
40
1.4999999999999858
210
-1.2206488875331636e-19
220
0
230
1
0
CIRCLE
5
210
100
AcDbEntity
8
0
100
AcDbCircle
10
228.59999999995023
20
4.0744488831150356
30
-3.3306690738754696e-15
40
1.4999999999999858
210
-1.2206488875331636e-19
220
0
230
1
0
CIRCLE
5
211
100
AcDbEntity
8
0
100
AcDbCircle
10
33.337499999951312
20
4.0744488831163128
30
-2.2204460492503131e-15
40
1.4999999999999947
210
-1.2206488875331636e-19
220
0
230
1
0
CIRCLE
5
212
100
AcDbEntity
8
0
100
AcDbCircle
10
309.56249999982469
20
-121.11305111734234
30
2.7755575615628914e-14
40
1.4999999999999858
210
-1.2206488875331703e-19
220
0
230
1
0
ENDSEC
0
SECTION
2
OBJECTS
0
DICTIONARY
5
C
100
AcDbDictionary
3
ACAD_GROUP
350
D
3
ACAD_MLINESTYLE
350
17
0
DICTIONARY
5
D
100
AcDbDictionary
0
DICTIONARY
5
1A
330
C
100
AcDbDictionary
0
DICTIONARY
5
17
100
AcDbDictionary
0
ENDSEC
0
EOF
